<?xml version="1.0" encoding="utf-8" standalone="no"?>
<!DOCTYPE svg PUBLIC "-//W3C//DTD SVG 1.1//EN"
  "http://www.w3.org/Graphics/SVG/1.1/DTD/svg11.dtd">
<svg xmlns:xlink="http://www.w3.org/1999/xlink" width="908.054188pt" height="486.064625pt" viewBox="0 0 908.054188 486.064625" xmlns="http://www.w3.org/2000/svg" version="1.1">
 <metadata>
  <rdf:RDF xmlns:dc="http://purl.org/dc/elements/1.1/" xmlns:cc="http://creativecommons.org/ns#" xmlns:rdf="http://www.w3.org/1999/02/22-rdf-syntax-ns#">
   <cc:Work>
    <dc:type rdf:resource="http://purl.org/dc/dcmitype/StillImage"/>
    <dc:date>2026-03-17T17:36:15.581151</dc:date>
    <dc:format>image/svg+xml</dc:format>
    <dc:creator>
     <cc:Agent>
      <dc:title>Matplotlib v3.9.3, https://matplotlib.org/</dc:title>
     </cc:Agent>
    </dc:creator>
   </cc:Work>
  </rdf:RDF>
 </metadata>
 <defs>
  <style type="text/css">*{stroke-linejoin: round; stroke-linecap: butt}</style>
 </defs>
 <g id="figure_1">
  <g id="patch_1">
   <path d="M 0 486.064625 
L 908.054187 486.064625 
L 908.054187 0 
L 0 0 
z
" style="fill: #ffffff"/>
  </g>
  <g id="axes_1">
   <g id="patch_2">
    <path d="M 61.26375 440.479 
L 730.86375 440.479 
L 730.86375 52.399 
L 61.26375 52.399 
z
" style="fill: #ffffff"/>
   </g>
   <g id="matplotlib.axis_1">
    <g id="xtick_1">
     <g id="line2d_1">
      <defs>
       <path id="md5f247b4de" d="M 0 0 
L 0 3.5 
" style="stroke: #000000; stroke-width: 0.8"/>
      </defs>
      <g>
       <use xlink:href="#md5f247b4de" x="117.06375" y="440.479" style="stroke: #000000; stroke-width: 0.8"/>
      </g>
     </g>
     <g id="text_1">
      <!-- 2025 -->
      <g transform="translate(104.33875 455.077437) scale(0.1 -0.1)">
       <defs>
        <path id="DejaVuSans-32" d="M 1228 531 
L 3431 531 
L 3431 0 
L 469 0 
L 469 531 
Q 828 903 1448 1529 
Q 2069 2156 2228 2338 
Q 2531 2678 2651 2914 
Q 2772 3150 2772 3378 
Q 2772 3750 2511 3984 
Q 2250 4219 1831 4219 
Q 1534 4219 1204 4116 
Q 875 4013 500 3803 
L 500 4441 
Q 881 4594 1212 4672 
Q 1544 4750 1819 4750 
Q 2544 4750 2975 4387 
Q 3406 4025 3406 3419 
Q 3406 3131 3298 2873 
Q 3191 2616 2906 2266 
Q 2828 2175 2409 1742 
Q 1991 1309 1228 531 
z
" transform="scale(0.015625)"/>
        <path id="DejaVuSans-30" d="M 2034 4250 
Q 1547 4250 1301 3770 
Q 1056 3291 1056 2328 
Q 1056 1369 1301 889 
Q 1547 409 2034 409 
Q 2525 409 2770 889 
Q 3016 1369 3016 2328 
Q 3016 3291 2770 3770 
Q 2525 4250 2034 4250 
z
M 2034 4750 
Q 2819 4750 3233 4129 
Q 3647 3509 3647 2328 
Q 3647 1150 3233 529 
Q 2819 -91 2034 -91 
Q 1250 -91 836 529 
Q 422 1150 422 2328 
Q 422 3509 836 4129 
Q 1250 4750 2034 4750 
z
" transform="scale(0.015625)"/>
        <path id="DejaVuSans-35" d="M 691 4666 
L 3169 4666 
L 3169 4134 
L 1269 4134 
L 1269 2991 
Q 1406 3038 1543 3061 
Q 1681 3084 1819 3084 
Q 2600 3084 3056 2656 
Q 3513 2228 3513 1497 
Q 3513 744 3044 326 
Q 2575 -91 1722 -91 
Q 1428 -91 1123 -41 
Q 819 9 494 109 
L 494 744 
Q 775 591 1075 516 
Q 1375 441 1709 441 
Q 2250 441 2565 725 
Q 2881 1009 2881 1497 
Q 2881 1984 2565 2268 
Q 2250 2553 1709 2553 
Q 1456 2553 1204 2497 
Q 953 2441 691 2322 
L 691 4666 
z
" transform="scale(0.015625)"/>
       </defs>
       <use xlink:href="#DejaVuSans-32"/>
       <use xlink:href="#DejaVuSans-30" x="63.623047"/>
       <use xlink:href="#DejaVuSans-32" x="127.246094"/>
       <use xlink:href="#DejaVuSans-35" x="190.869141"/>
      </g>
     </g>
    </g>
    <g id="xtick_2">
     <g id="line2d_2">
      <g>
       <use xlink:href="#md5f247b4de" x="228.66375" y="440.479" style="stroke: #000000; stroke-width: 0.8"/>
      </g>
     </g>
     <g id="text_2">
      <!-- 2030 -->
      <g transform="translate(215.93875 455.077437) scale(0.1 -0.1)">
       <defs>
        <path id="DejaVuSans-33" d="M 2597 2516 
Q 3050 2419 3304 2112 
Q 3559 1806 3559 1356 
Q 3559 666 3084 287 
Q 2609 -91 1734 -91 
Q 1441 -91 1130 -33 
Q 819 25 488 141 
L 488 750 
Q 750 597 1062 519 
Q 1375 441 1716 441 
Q 2309 441 2620 675 
Q 2931 909 2931 1356 
Q 2931 1769 2642 2001 
Q 2353 2234 1838 2234 
L 1294 2234 
L 1294 2753 
L 1863 2753 
Q 2328 2753 2575 2939 
Q 2822 3125 2822 3475 
Q 2822 3834 2567 4026 
Q 2313 4219 1838 4219 
Q 1578 4219 1281 4162 
Q 984 4106 628 3988 
L 628 4550 
Q 988 4650 1302 4700 
Q 1616 4750 1894 4750 
Q 2613 4750 3031 4423 
Q 3450 4097 3450 3541 
Q 3450 3153 3228 2886 
Q 3006 2619 2597 2516 
z
" transform="scale(0.015625)"/>
       </defs>
       <use xlink:href="#DejaVuSans-32"/>
       <use xlink:href="#DejaVuSans-30" x="63.623047"/>
       <use xlink:href="#DejaVuSans-33" x="127.246094"/>
       <use xlink:href="#DejaVuSans-30" x="190.869141"/>
      </g>
     </g>
    </g>
    <g id="xtick_3">
     <g id="line2d_3">
      <g>
       <use xlink:href="#md5f247b4de" x="340.26375" y="440.479" style="stroke: #000000; stroke-width: 0.8"/>
      </g>
     </g>
     <g id="text_3">
      <!-- 2035 -->
      <g transform="translate(327.53875 455.077437) scale(0.1 -0.1)">
       <use xlink:href="#DejaVuSans-32"/>
       <use xlink:href="#DejaVuSans-30" x="63.623047"/>
       <use xlink:href="#DejaVuSans-33" x="127.246094"/>
       <use xlink:href="#DejaVuSans-35" x="190.869141"/>
      </g>
     </g>
    </g>
    <g id="xtick_4">
     <g id="line2d_4">
      <g>
       <use xlink:href="#md5f247b4de" x="451.86375" y="440.479" style="stroke: #000000; stroke-width: 0.8"/>
      </g>
     </g>
     <g id="text_4">
      <!-- 2040 -->
      <g transform="translate(439.13875 455.077437) scale(0.1 -0.1)">
       <defs>
        <path id="DejaVuSans-34" d="M 2419 4116 
L 825 1625 
L 2419 1625 
L 2419 4116 
z
M 2253 4666 
L 3047 4666 
L 3047 1625 
L 3713 1625 
L 3713 1100 
L 3047 1100 
L 3047 0 
L 2419 0 
L 2419 1100 
L 313 1100 
L 313 1709 
L 2253 4666 
z
" transform="scale(0.015625)"/>
       </defs>
       <use xlink:href="#DejaVuSans-32"/>
       <use xlink:href="#DejaVuSans-30" x="63.623047"/>
       <use xlink:href="#DejaVuSans-34" x="127.246094"/>
       <use xlink:href="#DejaVuSans-30" x="190.869141"/>
      </g>
     </g>
    </g>
    <g id="xtick_5">
     <g id="line2d_5">
      <g>
       <use xlink:href="#md5f247b4de" x="563.46375" y="440.479" style="stroke: #000000; stroke-width: 0.8"/>
      </g>
     </g>
     <g id="text_5">
      <!-- 2045 -->
      <g transform="translate(550.73875 455.077437) scale(0.1 -0.1)">
       <use xlink:href="#DejaVuSans-32"/>
       <use xlink:href="#DejaVuSans-30" x="63.623047"/>
       <use xlink:href="#DejaVuSans-34" x="127.246094"/>
       <use xlink:href="#DejaVuSans-35" x="190.869141"/>
      </g>
     </g>
    </g>
    <g id="xtick_6">
     <g id="line2d_6">
      <g>
       <use xlink:href="#md5f247b4de" x="675.06375" y="440.479" style="stroke: #000000; stroke-width: 0.8"/>
      </g>
     </g>
     <g id="text_6">
      <!-- 2050 -->
      <g transform="translate(662.33875 455.077437) scale(0.1 -0.1)">
       <use xlink:href="#DejaVuSans-32"/>
       <use xlink:href="#DejaVuSans-30" x="63.623047"/>
       <use xlink:href="#DejaVuSans-35" x="127.246094"/>
       <use xlink:href="#DejaVuSans-30" x="190.869141"/>
      </g>
     </g>
    </g>
    <g id="text_7">
     <!-- Projection Year -->
     <g transform="translate(344.620313 476.27525) scale(0.12 -0.12)">
      <defs>
       <path id="DejaVuSans-Bold-50" d="M 588 4666 
L 2584 4666 
Q 3475 4666 3951 4270 
Q 4428 3875 4428 3144 
Q 4428 2409 3951 2014 
Q 3475 1619 2584 1619 
L 1791 1619 
L 1791 0 
L 588 0 
L 588 4666 
z
M 1791 3794 
L 1791 2491 
L 2456 2491 
Q 2806 2491 2997 2661 
Q 3188 2831 3188 3144 
Q 3188 3456 2997 3625 
Q 2806 3794 2456 3794 
L 1791 3794 
z
" transform="scale(0.015625)"/>
       <path id="DejaVuSans-Bold-72" d="M 3138 2547 
Q 2991 2616 2845 2648 
Q 2700 2681 2553 2681 
Q 2122 2681 1889 2404 
Q 1656 2128 1656 1613 
L 1656 0 
L 538 0 
L 538 3500 
L 1656 3500 
L 1656 2925 
Q 1872 3269 2151 3426 
Q 2431 3584 2822 3584 
Q 2878 3584 2943 3579 
Q 3009 3575 3134 3559 
L 3138 2547 
z
" transform="scale(0.015625)"/>
       <path id="DejaVuSans-Bold-6f" d="M 2203 2784 
Q 1831 2784 1636 2517 
Q 1441 2250 1441 1747 
Q 1441 1244 1636 976 
Q 1831 709 2203 709 
Q 2569 709 2762 976 
Q 2956 1244 2956 1747 
Q 2956 2250 2762 2517 
Q 2569 2784 2203 2784 
z
M 2203 3584 
Q 3106 3584 3614 3096 
Q 4122 2609 4122 1747 
Q 4122 884 3614 396 
Q 3106 -91 2203 -91 
Q 1297 -91 786 396 
Q 275 884 275 1747 
Q 275 2609 786 3096 
Q 1297 3584 2203 3584 
z
" transform="scale(0.015625)"/>
       <path id="DejaVuSans-Bold-6a" d="M 538 3500 
L 1656 3500 
L 1656 63 
Q 1656 -641 1318 -1011 
Q 981 -1381 341 -1381 
L -213 -1381 
L -213 -647 
L -19 -647 
Q 300 -647 419 -503 
Q 538 -359 538 63 
L 538 3500 
z
M 538 4863 
L 1656 4863 
L 1656 3950 
L 538 3950 
L 538 4863 
z
" transform="scale(0.015625)"/>
       <path id="DejaVuSans-Bold-65" d="M 4031 1759 
L 4031 1441 
L 1416 1441 
Q 1456 1047 1700 850 
Q 1944 653 2381 653 
Q 2734 653 3104 758 
Q 3475 863 3866 1075 
L 3866 213 
Q 3469 63 3072 -14 
Q 2675 -91 2278 -91 
Q 1328 -91 801 392 
Q 275 875 275 1747 
Q 275 2603 792 3093 
Q 1309 3584 2216 3584 
Q 3041 3584 3536 3087 
Q 4031 2591 4031 1759 
z
M 2881 2131 
Q 2881 2450 2695 2645 
Q 2509 2841 2209 2841 
Q 1884 2841 1681 2658 
Q 1478 2475 1428 2131 
L 2881 2131 
z
" transform="scale(0.015625)"/>
       <path id="DejaVuSans-Bold-63" d="M 3366 3391 
L 3366 2478 
Q 3138 2634 2908 2709 
Q 2678 2784 2431 2784 
Q 1963 2784 1702 2511 
Q 1441 2238 1441 1747 
Q 1441 1256 1702 982 
Q 1963 709 2431 709 
Q 2694 709 2930 787 
Q 3166 866 3366 1019 
L 3366 103 
Q 3103 6 2833 -42 
Q 2563 -91 2291 -91 
Q 1344 -91 809 395 
Q 275 881 275 1747 
Q 275 2613 809 3098 
Q 1344 3584 2291 3584 
Q 2566 3584 2833 3536 
Q 3100 3488 3366 3391 
z
" transform="scale(0.015625)"/>
       <path id="DejaVuSans-Bold-74" d="M 1759 4494 
L 1759 3500 
L 2913 3500 
L 2913 2700 
L 1759 2700 
L 1759 1216 
Q 1759 972 1856 886 
Q 1953 800 2241 800 
L 2816 800 
L 2816 0 
L 1856 0 
Q 1194 0 917 276 
Q 641 553 641 1216 
L 641 2700 
L 84 2700 
L 84 3500 
L 641 3500 
L 641 4494 
L 1759 4494 
z
" transform="scale(0.015625)"/>
       <path id="DejaVuSans-Bold-69" d="M 538 3500 
L 1656 3500 
L 1656 0 
L 538 0 
L 538 3500 
z
M 538 4863 
L 1656 4863 
L 1656 3950 
L 538 3950 
L 538 4863 
z
" transform="scale(0.015625)"/>
       <path id="DejaVuSans-Bold-6e" d="M 4056 2131 
L 4056 0 
L 2931 0 
L 2931 347 
L 2931 1631 
Q 2931 2084 2911 2256 
Q 2891 2428 2841 2509 
Q 2775 2619 2662 2680 
Q 2550 2741 2406 2741 
Q 2056 2741 1856 2470 
Q 1656 2200 1656 1722 
L 1656 0 
L 538 0 
L 538 3500 
L 1656 3500 
L 1656 2988 
Q 1909 3294 2193 3439 
Q 2478 3584 2822 3584 
Q 3428 3584 3742 3212 
Q 4056 2841 4056 2131 
z
" transform="scale(0.015625)"/>
       <path id="DejaVuSans-Bold-20" transform="scale(0.015625)"/>
       <path id="DejaVuSans-Bold-59" d="M -63 4666 
L 1253 4666 
L 2316 3003 
L 3378 4666 
L 4697 4666 
L 2919 1966 
L 2919 0 
L 1716 0 
L 1716 1966 
L -63 4666 
z
" transform="scale(0.015625)"/>
       <path id="DejaVuSans-Bold-61" d="M 2106 1575 
Q 1756 1575 1579 1456 
Q 1403 1338 1403 1106 
Q 1403 894 1545 773 
Q 1688 653 1941 653 
Q 2256 653 2472 879 
Q 2688 1106 2688 1447 
L 2688 1575 
L 2106 1575 
z
M 3816 1997 
L 3816 0 
L 2688 0 
L 2688 519 
Q 2463 200 2181 54 
Q 1900 -91 1497 -91 
Q 953 -91 614 226 
Q 275 544 275 1050 
Q 275 1666 698 1953 
Q 1122 2241 2028 2241 
L 2688 2241 
L 2688 2328 
Q 2688 2594 2478 2717 
Q 2269 2841 1825 2841 
Q 1466 2841 1156 2769 
Q 847 2697 581 2553 
L 581 3406 
Q 941 3494 1303 3539 
Q 1666 3584 2028 3584 
Q 2975 3584 3395 3211 
Q 3816 2838 3816 1997 
z
" transform="scale(0.015625)"/>
      </defs>
      <use xlink:href="#DejaVuSans-Bold-50"/>
      <use xlink:href="#DejaVuSans-Bold-72" x="73.291016"/>
      <use xlink:href="#DejaVuSans-Bold-6f" x="122.607422"/>
      <use xlink:href="#DejaVuSans-Bold-6a" x="191.308594"/>
      <use xlink:href="#DejaVuSans-Bold-65" x="225.585938"/>
      <use xlink:href="#DejaVuSans-Bold-63" x="293.408203"/>
      <use xlink:href="#DejaVuSans-Bold-74" x="352.685547"/>
      <use xlink:href="#DejaVuSans-Bold-69" x="400.488281"/>
      <use xlink:href="#DejaVuSans-Bold-6f" x="434.765625"/>
      <use xlink:href="#DejaVuSans-Bold-6e" x="503.466797"/>
      <use xlink:href="#DejaVuSans-Bold-20" x="574.658203"/>
      <use xlink:href="#DejaVuSans-Bold-59" x="609.472656"/>
      <use xlink:href="#DejaVuSans-Bold-65" x="672.759766"/>
      <use xlink:href="#DejaVuSans-Bold-61" x="740.582031"/>
      <use xlink:href="#DejaVuSans-Bold-72" x="808.0625"/>
     </g>
    </g>
   </g>
   <g id="matplotlib.axis_2">
    <g id="ytick_1">
     <g id="line2d_7">
      <path d="M 61.26375 440.479 
L 730.86375 440.479 
" clip-path="url(#p32e30b7c7c)" style="fill: none; stroke-dasharray: 2.96,1.28; stroke-dashoffset: 0; stroke: #b0b0b0; stroke-opacity: 0.6; stroke-width: 0.8"/>
     </g>
     <g id="line2d_8">
      <defs>
       <path id="m2259809c23" d="M 0 0 
L -3.5 0 
" style="stroke: #000000; stroke-width: 0.8"/>
      </defs>
      <g>
       <use xlink:href="#m2259809c23" x="61.26375" y="440.479" style="stroke: #000000; stroke-width: 0.8"/>
      </g>
     </g>
     <g id="text_8">
      <!-- 0 -->
      <g transform="translate(47.90125 444.278219) scale(0.1 -0.1)">
       <use xlink:href="#DejaVuSans-30"/>
      </g>
     </g>
    </g>
    <g id="ytick_2">
     <g id="line2d_9">
      <path d="M 61.26375 381.395108 
L 730.86375 381.395108 
" clip-path="url(#p32e30b7c7c)" style="fill: none; stroke-dasharray: 2.96,1.28; stroke-dashoffset: 0; stroke: #b0b0b0; stroke-opacity: 0.6; stroke-width: 0.8"/>
     </g>
     <g id="line2d_10">
      <g>
       <use xlink:href="#m2259809c23" x="61.26375" y="381.395108" style="stroke: #000000; stroke-width: 0.8"/>
      </g>
     </g>
     <g id="text_9">
      <!-- 1000 -->
      <g transform="translate(28.81375 385.194327) scale(0.1 -0.1)">
       <defs>
        <path id="DejaVuSans-31" d="M 794 531 
L 1825 531 
L 1825 4091 
L 703 3866 
L 703 4441 
L 1819 4666 
L 2450 4666 
L 2450 531 
L 3481 531 
L 3481 0 
L 794 0 
L 794 531 
z
" transform="scale(0.015625)"/>
       </defs>
       <use xlink:href="#DejaVuSans-31"/>
       <use xlink:href="#DejaVuSans-30" x="63.623047"/>
       <use xlink:href="#DejaVuSans-30" x="127.246094"/>
       <use xlink:href="#DejaVuSans-30" x="190.869141"/>
      </g>
     </g>
    </g>
    <g id="ytick_3">
     <g id="line2d_11">
      <path d="M 61.26375 322.311217 
L 730.86375 322.311217 
" clip-path="url(#p32e30b7c7c)" style="fill: none; stroke-dasharray: 2.96,1.28; stroke-dashoffset: 0; stroke: #b0b0b0; stroke-opacity: 0.6; stroke-width: 0.8"/>
     </g>
     <g id="line2d_12">
      <g>
       <use xlink:href="#m2259809c23" x="61.26375" y="322.311217" style="stroke: #000000; stroke-width: 0.8"/>
      </g>
     </g>
     <g id="text_10">
      <!-- 2000 -->
      <g transform="translate(28.81375 326.110435) scale(0.1 -0.1)">
       <use xlink:href="#DejaVuSans-32"/>
       <use xlink:href="#DejaVuSans-30" x="63.623047"/>
       <use xlink:href="#DejaVuSans-30" x="127.246094"/>
       <use xlink:href="#DejaVuSans-30" x="190.869141"/>
      </g>
     </g>
    </g>
    <g id="ytick_4">
     <g id="line2d_13">
      <path d="M 61.26375 263.227325 
L 730.86375 263.227325 
" clip-path="url(#p32e30b7c7c)" style="fill: none; stroke-dasharray: 2.96,1.28; stroke-dashoffset: 0; stroke: #b0b0b0; stroke-opacity: 0.6; stroke-width: 0.8"/>
     </g>
     <g id="line2d_14">
      <g>
       <use xlink:href="#m2259809c23" x="61.26375" y="263.227325" style="stroke: #000000; stroke-width: 0.8"/>
      </g>
     </g>
     <g id="text_11">
      <!-- 3000 -->
      <g transform="translate(28.81375 267.026544) scale(0.1 -0.1)">
       <use xlink:href="#DejaVuSans-33"/>
       <use xlink:href="#DejaVuSans-30" x="63.623047"/>
       <use xlink:href="#DejaVuSans-30" x="127.246094"/>
       <use xlink:href="#DejaVuSans-30" x="190.869141"/>
      </g>
     </g>
    </g>
    <g id="ytick_5">
     <g id="line2d_15">
      <path d="M 61.26375 204.143433 
L 730.86375 204.143433 
" clip-path="url(#p32e30b7c7c)" style="fill: none; stroke-dasharray: 2.96,1.28; stroke-dashoffset: 0; stroke: #b0b0b0; stroke-opacity: 0.6; stroke-width: 0.8"/>
     </g>
     <g id="line2d_16">
      <g>
       <use xlink:href="#m2259809c23" x="61.26375" y="204.143433" style="stroke: #000000; stroke-width: 0.8"/>
      </g>
     </g>
     <g id="text_12">
      <!-- 4000 -->
      <g transform="translate(28.81375 207.942652) scale(0.1 -0.1)">
       <use xlink:href="#DejaVuSans-34"/>
       <use xlink:href="#DejaVuSans-30" x="63.623047"/>
       <use xlink:href="#DejaVuSans-30" x="127.246094"/>
       <use xlink:href="#DejaVuSans-30" x="190.869141"/>
      </g>
     </g>
    </g>
    <g id="ytick_6">
     <g id="line2d_17">
      <path d="M 61.26375 145.059541 
L 730.86375 145.059541 
" clip-path="url(#p32e30b7c7c)" style="fill: none; stroke-dasharray: 2.96,1.28; stroke-dashoffset: 0; stroke: #b0b0b0; stroke-opacity: 0.6; stroke-width: 0.8"/>
     </g>
     <g id="line2d_18">
      <g>
       <use xlink:href="#m2259809c23" x="61.26375" y="145.059541" style="stroke: #000000; stroke-width: 0.8"/>
      </g>
     </g>
     <g id="text_13">
      <!-- 5000 -->
      <g transform="translate(28.81375 148.85876) scale(0.1 -0.1)">
       <use xlink:href="#DejaVuSans-35"/>
       <use xlink:href="#DejaVuSans-30" x="63.623047"/>
       <use xlink:href="#DejaVuSans-30" x="127.246094"/>
       <use xlink:href="#DejaVuSans-30" x="190.869141"/>
      </g>
     </g>
    </g>
    <g id="ytick_7">
     <g id="line2d_19">
      <path d="M 61.26375 85.97565 
L 730.86375 85.97565 
" clip-path="url(#p32e30b7c7c)" style="fill: none; stroke-dasharray: 2.96,1.28; stroke-dashoffset: 0; stroke: #b0b0b0; stroke-opacity: 0.6; stroke-width: 0.8"/>
     </g>
     <g id="line2d_20">
      <g>
       <use xlink:href="#m2259809c23" x="61.26375" y="85.97565" style="stroke: #000000; stroke-width: 0.8"/>
      </g>
     </g>
     <g id="text_14">
      <!-- 6000 -->
      <g transform="translate(28.81375 89.774869) scale(0.1 -0.1)">
       <defs>
        <path id="DejaVuSans-36" d="M 2113 2584 
Q 1688 2584 1439 2293 
Q 1191 2003 1191 1497 
Q 1191 994 1439 701 
Q 1688 409 2113 409 
Q 2538 409 2786 701 
Q 3034 994 3034 1497 
Q 3034 2003 2786 2293 
Q 2538 2584 2113 2584 
z
M 3366 4563 
L 3366 3988 
Q 3128 4100 2886 4159 
Q 2644 4219 2406 4219 
Q 1781 4219 1451 3797 
Q 1122 3375 1075 2522 
Q 1259 2794 1537 2939 
Q 1816 3084 2150 3084 
Q 2853 3084 3261 2657 
Q 3669 2231 3669 1497 
Q 3669 778 3244 343 
Q 2819 -91 2113 -91 
Q 1303 -91 875 529 
Q 447 1150 447 2328 
Q 447 3434 972 4092 
Q 1497 4750 2381 4750 
Q 2619 4750 2861 4703 
Q 3103 4656 3366 4563 
z
" transform="scale(0.015625)"/>
       </defs>
       <use xlink:href="#DejaVuSans-36"/>
       <use xlink:href="#DejaVuSans-30" x="63.623047"/>
       <use xlink:href="#DejaVuSans-30" x="127.246094"/>
       <use xlink:href="#DejaVuSans-30" x="190.869141"/>
      </g>
     </g>
    </g>
    <g id="text_15">
     <!-- Number of Enrolled Freshmen -->
     <g transform="translate(16.318125 347.414312) rotate(-90) scale(0.12 -0.12)">
      <defs>
       <path id="DejaVuSans-Bold-4e" d="M 588 4666 
L 1931 4666 
L 3628 1466 
L 3628 4666 
L 4769 4666 
L 4769 0 
L 3425 0 
L 1728 3200 
L 1728 0 
L 588 0 
L 588 4666 
z
" transform="scale(0.015625)"/>
       <path id="DejaVuSans-Bold-75" d="M 500 1363 
L 500 3500 
L 1625 3500 
L 1625 3150 
Q 1625 2866 1622 2436 
Q 1619 2006 1619 1863 
Q 1619 1441 1641 1255 
Q 1663 1069 1716 984 
Q 1784 875 1895 815 
Q 2006 756 2150 756 
Q 2500 756 2700 1025 
Q 2900 1294 2900 1772 
L 2900 3500 
L 4019 3500 
L 4019 0 
L 2900 0 
L 2900 506 
Q 2647 200 2364 54 
Q 2081 -91 1741 -91 
Q 1134 -91 817 281 
Q 500 653 500 1363 
z
" transform="scale(0.015625)"/>
       <path id="DejaVuSans-Bold-6d" d="M 3781 2919 
Q 3994 3244 4286 3414 
Q 4578 3584 4928 3584 
Q 5531 3584 5847 3212 
Q 6163 2841 6163 2131 
L 6163 0 
L 5038 0 
L 5038 1825 
Q 5041 1866 5042 1909 
Q 5044 1953 5044 2034 
Q 5044 2406 4934 2573 
Q 4825 2741 4581 2741 
Q 4263 2741 4089 2478 
Q 3916 2216 3909 1719 
L 3909 0 
L 2784 0 
L 2784 1825 
Q 2784 2406 2684 2573 
Q 2584 2741 2328 2741 
Q 2006 2741 1831 2477 
Q 1656 2213 1656 1722 
L 1656 0 
L 531 0 
L 531 3500 
L 1656 3500 
L 1656 2988 
Q 1863 3284 2130 3434 
Q 2397 3584 2719 3584 
Q 3081 3584 3359 3409 
Q 3638 3234 3781 2919 
z
" transform="scale(0.015625)"/>
       <path id="DejaVuSans-Bold-62" d="M 2400 722 
Q 2759 722 2948 984 
Q 3138 1247 3138 1747 
Q 3138 2247 2948 2509 
Q 2759 2772 2400 2772 
Q 2041 2772 1848 2508 
Q 1656 2244 1656 1747 
Q 1656 1250 1848 986 
Q 2041 722 2400 722 
z
M 1656 2988 
Q 1888 3294 2169 3439 
Q 2450 3584 2816 3584 
Q 3463 3584 3878 3070 
Q 4294 2556 4294 1747 
Q 4294 938 3878 423 
Q 3463 -91 2816 -91 
Q 2450 -91 2169 54 
Q 1888 200 1656 506 
L 1656 0 
L 538 0 
L 538 4863 
L 1656 4863 
L 1656 2988 
z
" transform="scale(0.015625)"/>
       <path id="DejaVuSans-Bold-66" d="M 2841 4863 
L 2841 4128 
L 2222 4128 
Q 1984 4128 1890 4042 
Q 1797 3956 1797 3744 
L 1797 3500 
L 2753 3500 
L 2753 2700 
L 1797 2700 
L 1797 0 
L 678 0 
L 678 2700 
L 122 2700 
L 122 3500 
L 678 3500 
L 678 3744 
Q 678 4316 997 4589 
Q 1316 4863 1984 4863 
L 2841 4863 
z
" transform="scale(0.015625)"/>
       <path id="DejaVuSans-Bold-45" d="M 588 4666 
L 3834 4666 
L 3834 3756 
L 1791 3756 
L 1791 2888 
L 3713 2888 
L 3713 1978 
L 1791 1978 
L 1791 909 
L 3903 909 
L 3903 0 
L 588 0 
L 588 4666 
z
" transform="scale(0.015625)"/>
       <path id="DejaVuSans-Bold-6c" d="M 538 4863 
L 1656 4863 
L 1656 0 
L 538 0 
L 538 4863 
z
" transform="scale(0.015625)"/>
       <path id="DejaVuSans-Bold-64" d="M 2919 2988 
L 2919 4863 
L 4044 4863 
L 4044 0 
L 2919 0 
L 2919 506 
Q 2688 197 2409 53 
Q 2131 -91 1766 -91 
Q 1119 -91 703 423 
Q 288 938 288 1747 
Q 288 2556 703 3070 
Q 1119 3584 1766 3584 
Q 2128 3584 2408 3439 
Q 2688 3294 2919 2988 
z
M 2181 722 
Q 2541 722 2730 984 
Q 2919 1247 2919 1747 
Q 2919 2247 2730 2509 
Q 2541 2772 2181 2772 
Q 1825 2772 1636 2509 
Q 1447 2247 1447 1747 
Q 1447 1247 1636 984 
Q 1825 722 2181 722 
z
" transform="scale(0.015625)"/>
       <path id="DejaVuSans-Bold-46" d="M 588 4666 
L 3834 4666 
L 3834 3756 
L 1791 3756 
L 1791 2888 
L 3713 2888 
L 3713 1978 
L 1791 1978 
L 1791 0 
L 588 0 
L 588 4666 
z
" transform="scale(0.015625)"/>
       <path id="DejaVuSans-Bold-73" d="M 3272 3391 
L 3272 2541 
Q 2913 2691 2578 2766 
Q 2244 2841 1947 2841 
Q 1628 2841 1473 2761 
Q 1319 2681 1319 2516 
Q 1319 2381 1436 2309 
Q 1553 2238 1856 2203 
L 2053 2175 
Q 2913 2066 3209 1816 
Q 3506 1566 3506 1031 
Q 3506 472 3093 190 
Q 2681 -91 1863 -91 
Q 1516 -91 1145 -36 
Q 775 19 384 128 
L 384 978 
Q 719 816 1070 734 
Q 1422 653 1784 653 
Q 2113 653 2278 743 
Q 2444 834 2444 1013 
Q 2444 1163 2330 1236 
Q 2216 1309 1875 1350 
L 1678 1375 
Q 931 1469 631 1722 
Q 331 1975 331 2491 
Q 331 3047 712 3315 
Q 1094 3584 1881 3584 
Q 2191 3584 2531 3537 
Q 2872 3491 3272 3391 
z
" transform="scale(0.015625)"/>
       <path id="DejaVuSans-Bold-68" d="M 4056 2131 
L 4056 0 
L 2931 0 
L 2931 347 
L 2931 1625 
Q 2931 2084 2911 2256 
Q 2891 2428 2841 2509 
Q 2775 2619 2662 2680 
Q 2550 2741 2406 2741 
Q 2056 2741 1856 2470 
Q 1656 2200 1656 1722 
L 1656 0 
L 538 0 
L 538 4863 
L 1656 4863 
L 1656 2988 
Q 1909 3294 2193 3439 
Q 2478 3584 2822 3584 
Q 3428 3584 3742 3212 
Q 4056 2841 4056 2131 
z
" transform="scale(0.015625)"/>
      </defs>
      <use xlink:href="#DejaVuSans-Bold-4e"/>
      <use xlink:href="#DejaVuSans-Bold-75" x="83.691406"/>
      <use xlink:href="#DejaVuSans-Bold-6d" x="154.882812"/>
      <use xlink:href="#DejaVuSans-Bold-62" x="259.082031"/>
      <use xlink:href="#DejaVuSans-Bold-65" x="330.664062"/>
      <use xlink:href="#DejaVuSans-Bold-72" x="398.486328"/>
      <use xlink:href="#DejaVuSans-Bold-20" x="447.802734"/>
      <use xlink:href="#DejaVuSans-Bold-6f" x="482.617188"/>
      <use xlink:href="#DejaVuSans-Bold-66" x="551.318359"/>
      <use xlink:href="#DejaVuSans-Bold-20" x="594.824219"/>
      <use xlink:href="#DejaVuSans-Bold-45" x="629.638672"/>
      <use xlink:href="#DejaVuSans-Bold-6e" x="697.949219"/>
      <use xlink:href="#DejaVuSans-Bold-72" x="769.140625"/>
      <use xlink:href="#DejaVuSans-Bold-6f" x="818.457031"/>
      <use xlink:href="#DejaVuSans-Bold-6c" x="887.158203"/>
      <use xlink:href="#DejaVuSans-Bold-6c" x="921.435547"/>
      <use xlink:href="#DejaVuSans-Bold-65" x="955.712891"/>
      <use xlink:href="#DejaVuSans-Bold-64" x="1023.535156"/>
      <use xlink:href="#DejaVuSans-Bold-20" x="1095.117188"/>
      <use xlink:href="#DejaVuSans-Bold-46" x="1129.931641"/>
      <use xlink:href="#DejaVuSans-Bold-72" x="1191.867188"/>
      <use xlink:href="#DejaVuSans-Bold-65" x="1241.183594"/>
      <use xlink:href="#DejaVuSans-Bold-73" x="1309.005859"/>
      <use xlink:href="#DejaVuSans-Bold-68" x="1368.527344"/>
      <use xlink:href="#DejaVuSans-Bold-6d" x="1439.71875"/>
      <use xlink:href="#DejaVuSans-Bold-65" x="1543.917969"/>
      <use xlink:href="#DejaVuSans-Bold-6e" x="1611.740234"/>
     </g>
    </g>
   </g>
   <g id="patch_3">
    <path d="M 89.16375 440.479 
L 144.96375 440.479 
L 144.96375 277.14798 
L 89.16375 277.14798 
z
" clip-path="url(#p32e30b7c7c)" style="fill: #1f77b4; stroke: #ffffff; stroke-width: 0.5; stroke-linejoin: miter"/>
   </g>
   <g id="patch_4">
    <path d="M 200.76375 440.479 
L 256.56375 440.479 
L 256.56375 280.517064 
L 200.76375 280.517064 
z
" clip-path="url(#p32e30b7c7c)" style="fill: #1f77b4; stroke: #ffffff; stroke-width: 0.5; stroke-linejoin: miter"/>
   </g>
   <g id="patch_5">
    <path d="M 312.36375 440.479 
L 368.16375 440.479 
L 368.16375 291.982642 
L 312.36375 291.982642 
z
" clip-path="url(#p32e30b7c7c)" style="fill: #1f77b4; stroke: #ffffff; stroke-width: 0.5; stroke-linejoin: miter"/>
   </g>
   <g id="patch_6">
    <path d="M 423.96375 440.479 
L 479.76375 440.479 
L 479.76375 300.924083 
L 423.96375 300.924083 
z
" clip-path="url(#p32e30b7c7c)" style="fill: #1f77b4; stroke: #ffffff; stroke-width: 0.5; stroke-linejoin: miter"/>
   </g>
   <g id="patch_7">
    <path d="M 535.56375 440.479 
L 591.36375 440.479 
L 591.36375 289.319462 
L 535.56375 289.319462 
z
" clip-path="url(#p32e30b7c7c)" style="fill: #1f77b4; stroke: #ffffff; stroke-width: 0.5; stroke-linejoin: miter"/>
   </g>
   <g id="patch_8">
    <path d="M 647.16375 440.479 
L 702.96375 440.479 
L 702.96375 290.495968 
L 647.16375 290.495968 
z
" clip-path="url(#p32e30b7c7c)" style="fill: #1f77b4; stroke: #ffffff; stroke-width: 0.5; stroke-linejoin: miter"/>
   </g>
   <g id="patch_9">
    <path d="M 89.16375 277.14798 
L 144.96375 277.14798 
L 144.96375 261.355084 
L 89.16375 261.355084 
z
" clip-path="url(#p32e30b7c7c)" style="fill: #aec7e8; stroke: #ffffff; stroke-width: 0.5; stroke-linejoin: miter"/>
   </g>
   <g id="patch_10">
    <path d="M 200.76375 280.517064 
L 256.56375 280.517064 
L 256.56375 266.161172 
L 200.76375 266.161172 
z
" clip-path="url(#p32e30b7c7c)" style="fill: #aec7e8; stroke: #ffffff; stroke-width: 0.5; stroke-linejoin: miter"/>
   </g>
   <g id="patch_11">
    <path d="M 312.36375 291.982642 
L 368.16375 291.982642 
L 368.16375 279.084992 
L 312.36375 279.084992 
z
" clip-path="url(#p32e30b7c7c)" style="fill: #aec7e8; stroke: #ffffff; stroke-width: 0.5; stroke-linejoin: miter"/>
   </g>
   <g id="patch_12">
    <path d="M 423.96375 300.924083 
L 479.76375 300.924083 
L 479.76375 288.819263 
L 423.96375 288.819263 
z
" clip-path="url(#p32e30b7c7c)" style="fill: #aec7e8; stroke: #ffffff; stroke-width: 0.5; stroke-linejoin: miter"/>
   </g>
   <g id="patch_13">
    <path d="M 535.56375 289.319462 
L 591.36375 289.319462 
L 591.36375 274.956492 
L 535.56375 274.956492 
z
" clip-path="url(#p32e30b7c7c)" style="fill: #aec7e8; stroke: #ffffff; stroke-width: 0.5; stroke-linejoin: miter"/>
   </g>
   <g id="patch_14">
    <path d="M 647.16375 290.495968 
L 702.96375 290.495968 
L 702.96375 276.416151 
L 647.16375 276.416151 
z
" clip-path="url(#p32e30b7c7c)" style="fill: #aec7e8; stroke: #ffffff; stroke-width: 0.5; stroke-linejoin: miter"/>
   </g>
   <g id="patch_15">
    <path d="M 89.16375 261.355084 
L 144.96375 261.355084 
L 144.96375 248.417179 
L 89.16375 248.417179 
z
" clip-path="url(#p32e30b7c7c)" style="fill: #ffbb78; stroke: #ffffff; stroke-width: 0.5; stroke-linejoin: miter"/>
   </g>
   <g id="patch_16">
    <path d="M 200.76375 266.161172 
L 256.56375 266.161172 
L 256.56375 254.096543 
L 200.76375 254.096543 
z
" clip-path="url(#p32e30b7c7c)" style="fill: #ffbb78; stroke: #ffffff; stroke-width: 0.5; stroke-linejoin: miter"/>
   </g>
   <g id="patch_17">
    <path d="M 312.36375 279.084992 
L 368.16375 279.084992 
L 368.16375 267.275628 
L 312.36375 267.275628 
z
" clip-path="url(#p32e30b7c7c)" style="fill: #ffbb78; stroke: #ffffff; stroke-width: 0.5; stroke-linejoin: miter"/>
   </g>
   <g id="patch_18">
    <path d="M 423.96375 288.819263 
L 479.76375 288.819263 
L 479.76375 278.178743 
L 423.96375 278.178743 
z
" clip-path="url(#p32e30b7c7c)" style="fill: #ffbb78; stroke: #ffffff; stroke-width: 0.5; stroke-linejoin: miter"/>
   </g>
   <g id="patch_19">
    <path d="M 535.56375 274.956492 
L 591.36375 274.956492 
L 591.36375 265.162377 
L 535.56375 265.162377 
z
" clip-path="url(#p32e30b7c7c)" style="fill: #ffbb78; stroke: #ffffff; stroke-width: 0.5; stroke-linejoin: miter"/>
   </g>
   <g id="patch_20">
    <path d="M 647.16375 276.416151 
L 702.96375 276.416151 
L 702.96375 267.119131 
L 647.16375 267.119131 
z
" clip-path="url(#p32e30b7c7c)" style="fill: #ffbb78; stroke: #ffffff; stroke-width: 0.5; stroke-linejoin: miter"/>
   </g>
   <g id="patch_21">
    <path d="M 89.16375 248.417179 
L 144.96375 248.417179 
L 144.96375 238.769167 
L 89.16375 238.769167 
z
" clip-path="url(#p32e30b7c7c)" style="fill: #98df8a; stroke: #ffffff; stroke-width: 0.5; stroke-linejoin: miter"/>
   </g>
   <g id="patch_22">
    <path d="M 200.76375 254.096543 
L 256.56375 254.096543 
L 256.56375 244.931326 
L 200.76375 244.931326 
z
" clip-path="url(#p32e30b7c7c)" style="fill: #98df8a; stroke: #ffffff; stroke-width: 0.5; stroke-linejoin: miter"/>
   </g>
   <g id="patch_23">
    <path d="M 312.36375 267.275628 
L 368.16375 267.275628 
L 368.16375 257.532639 
L 312.36375 257.532639 
z
" clip-path="url(#p32e30b7c7c)" style="fill: #98df8a; stroke: #ffffff; stroke-width: 0.5; stroke-linejoin: miter"/>
   </g>
   <g id="patch_24">
    <path d="M 423.96375 278.178743 
L 479.76375 278.178743 
L 479.76375 268.689024 
L 423.96375 268.689024 
z
" clip-path="url(#p32e30b7c7c)" style="fill: #98df8a; stroke: #ffffff; stroke-width: 0.5; stroke-linejoin: miter"/>
   </g>
   <g id="patch_25">
    <path d="M 535.56375 265.162377 
L 591.36375 265.162377 
L 591.36375 255.071142 
L 535.56375 255.071142 
z
" clip-path="url(#p32e30b7c7c)" style="fill: #98df8a; stroke: #ffffff; stroke-width: 0.5; stroke-linejoin: miter"/>
   </g>
   <g id="patch_26">
    <path d="M 647.16375 267.119131 
L 702.96375 267.119131 
L 702.96375 256.671734 
L 647.16375 256.671734 
z
" clip-path="url(#p32e30b7c7c)" style="fill: #98df8a; stroke: #ffffff; stroke-width: 0.5; stroke-linejoin: miter"/>
   </g>
   <g id="patch_27">
    <path d="M 89.16375 238.769167 
L 144.96375 238.769167 
L 144.96375 229.250566 
L 89.16375 229.250566 
z
" clip-path="url(#p32e30b7c7c)" style="fill: #d62728; stroke: #ffffff; stroke-width: 0.5; stroke-linejoin: miter"/>
   </g>
   <g id="patch_28">
    <path d="M 200.76375 244.931326 
L 256.56375 244.931326 
L 256.56375 235.766064 
L 200.76375 235.766064 
z
" clip-path="url(#p32e30b7c7c)" style="fill: #d62728; stroke: #ffffff; stroke-width: 0.5; stroke-linejoin: miter"/>
   </g>
   <g id="patch_29">
    <path d="M 312.36375 257.532639 
L 368.16375 257.532639 
L 368.16375 249.595444 
L 312.36375 249.595444 
z
" clip-path="url(#p32e30b7c7c)" style="fill: #d62728; stroke: #ffffff; stroke-width: 0.5; stroke-linejoin: miter"/>
   </g>
   <g id="patch_30">
    <path d="M 423.96375 268.689024 
L 479.76375 268.689024 
L 479.76375 260.35971 
L 423.96375 260.35971 
z
" clip-path="url(#p32e30b7c7c)" style="fill: #d62728; stroke: #ffffff; stroke-width: 0.5; stroke-linejoin: miter"/>
   </g>
   <g id="patch_31">
    <path d="M 535.56375 255.071142 
L 591.36375 255.071142 
L 591.36375 247.737208 
L 535.56375 247.737208 
z
" clip-path="url(#p32e30b7c7c)" style="fill: #d62728; stroke: #ffffff; stroke-width: 0.5; stroke-linejoin: miter"/>
   </g>
   <g id="patch_32">
    <path d="M 647.16375 256.671734 
L 702.96375 256.671734 
L 702.96375 249.523088 
L 647.16375 249.523088 
z
" clip-path="url(#p32e30b7c7c)" style="fill: #d62728; stroke: #ffffff; stroke-width: 0.5; stroke-linejoin: miter"/>
   </g>
   <g id="patch_33">
    <path d="M 89.16375 229.250566 
L 144.96375 229.250566 
L 144.96375 220.754864 
L 89.16375 220.754864 
z
" clip-path="url(#p32e30b7c7c)" style="fill: #9467bd; stroke: #ffffff; stroke-width: 0.5; stroke-linejoin: miter"/>
   </g>
   <g id="patch_34">
    <path d="M 200.76375 235.766064 
L 256.56375 235.766064 
L 256.56375 227.043416 
L 200.76375 227.043416 
z
" clip-path="url(#p32e30b7c7c)" style="fill: #9467bd; stroke: #ffffff; stroke-width: 0.5; stroke-linejoin: miter"/>
   </g>
   <g id="patch_35">
    <path d="M 312.36375 249.595444 
L 368.16375 249.595444 
L 368.16375 241.454963 
L 312.36375 241.454963 
z
" clip-path="url(#p32e30b7c7c)" style="fill: #9467bd; stroke: #ffffff; stroke-width: 0.5; stroke-linejoin: miter"/>
   </g>
   <g id="patch_36">
    <path d="M 423.96375 260.35971 
L 479.76375 260.35971 
L 479.76375 251.567991 
L 423.96375 251.567991 
z
" clip-path="url(#p32e30b7c7c)" style="fill: #9467bd; stroke: #ffffff; stroke-width: 0.5; stroke-linejoin: miter"/>
   </g>
   <g id="patch_37">
    <path d="M 535.56375 247.737208 
L 591.36375 247.737208 
L 591.36375 239.794073 
L 535.56375 239.794073 
z
" clip-path="url(#p32e30b7c7c)" style="fill: #9467bd; stroke: #ffffff; stroke-width: 0.5; stroke-linejoin: miter"/>
   </g>
   <g id="patch_38">
    <path d="M 647.16375 249.523088 
L 702.96375 249.523088 
L 702.96375 242.004244 
L 647.16375 242.004244 
z
" clip-path="url(#p32e30b7c7c)" style="fill: #9467bd; stroke: #ffffff; stroke-width: 0.5; stroke-linejoin: miter"/>
   </g>
   <g id="patch_39">
    <path d="M 89.16375 220.754864 
L 144.96375 220.754864 
L 144.96375 212.817696 
L 89.16375 212.817696 
z
" clip-path="url(#p32e30b7c7c)" style="fill: #8c564b; stroke: #ffffff; stroke-width: 0.5; stroke-linejoin: miter"/>
   </g>
   <g id="patch_40">
    <path d="M 200.76375 227.043416 
L 256.56375 227.043416 
L 256.56375 220.084901 
L 200.76375 220.084901 
z
" clip-path="url(#p32e30b7c7c)" style="fill: #8c564b; stroke: #ffffff; stroke-width: 0.5; stroke-linejoin: miter"/>
   </g>
   <g id="patch_41">
    <path d="M 312.36375 241.454963 
L 368.16375 241.454963 
L 368.16375 234.949796 
L 312.36375 234.949796 
z
" clip-path="url(#p32e30b7c7c)" style="fill: #8c564b; stroke: #ffffff; stroke-width: 0.5; stroke-linejoin: miter"/>
   </g>
   <g id="patch_42">
    <path d="M 423.96375 251.567991 
L 479.76375 251.567991 
L 479.76375 245.818401 
L 423.96375 245.818401 
z
" clip-path="url(#p32e30b7c7c)" style="fill: #8c564b; stroke: #ffffff; stroke-width: 0.5; stroke-linejoin: miter"/>
   </g>
   <g id="patch_43">
    <path d="M 535.56375 239.794073 
L 591.36375 239.794073 
L 591.36375 232.914714 
L 535.56375 232.914714 
z
" clip-path="url(#p32e30b7c7c)" style="fill: #8c564b; stroke: #ffffff; stroke-width: 0.5; stroke-linejoin: miter"/>
   </g>
   <g id="patch_44">
    <path d="M 647.16375 242.004244 
L 702.96375 242.004244 
L 702.96375 234.693127 
L 647.16375 234.693127 
z
" clip-path="url(#p32e30b7c7c)" style="fill: #8c564b; stroke: #ffffff; stroke-width: 0.5; stroke-linejoin: miter"/>
   </g>
   <g id="patch_45">
    <path d="M 89.16375 212.817696 
L 144.96375 212.817696 
L 144.96375 204.991523 
L 89.16375 204.991523 
z
" clip-path="url(#p32e30b7c7c)" style="fill: #c49c94; stroke: #ffffff; stroke-width: 0.5; stroke-linejoin: miter"/>
   </g>
   <g id="patch_46">
    <path d="M 200.76375 220.084901 
L 256.56375 220.084901 
L 256.56375 212.386703 
L 200.76375 212.386703 
z
" clip-path="url(#p32e30b7c7c)" style="fill: #c49c94; stroke: #ffffff; stroke-width: 0.5; stroke-linejoin: miter"/>
   </g>
   <g id="patch_47">
    <path d="M 312.36375 234.949796 
L 368.16375 234.949796 
L 368.16375 228.265555 
L 312.36375 228.265555 
z
" clip-path="url(#p32e30b7c7c)" style="fill: #c49c94; stroke: #ffffff; stroke-width: 0.5; stroke-linejoin: miter"/>
   </g>
   <g id="patch_48">
    <path d="M 423.96375 245.818401 
L 479.76375 245.818401 
L 479.76375 238.927431 
L 423.96375 238.927431 
z
" clip-path="url(#p32e30b7c7c)" style="fill: #c49c94; stroke: #ffffff; stroke-width: 0.5; stroke-linejoin: miter"/>
   </g>
   <g id="patch_49">
    <path d="M 535.56375 232.914714 
L 591.36375 232.914714 
L 591.36375 226.968791 
L 535.56375 226.968791 
z
" clip-path="url(#p32e30b7c7c)" style="fill: #c49c94; stroke: #ffffff; stroke-width: 0.5; stroke-linejoin: miter"/>
   </g>
   <g id="patch_50">
    <path d="M 647.16375 234.693127 
L 702.96375 234.693127 
L 702.96375 229.190195 
L 647.16375 229.190195 
z
" clip-path="url(#p32e30b7c7c)" style="fill: #c49c94; stroke: #ffffff; stroke-width: 0.5; stroke-linejoin: miter"/>
   </g>
   <g id="patch_51">
    <path d="M 89.16375 204.991523 
L 144.96375 204.991523 
L 144.96375 197.814184 
L 89.16375 197.814184 
z
" clip-path="url(#p32e30b7c7c)" style="fill: #f7b6d2; stroke: #ffffff; stroke-width: 0.5; stroke-linejoin: miter"/>
   </g>
   <g id="patch_52">
    <path d="M 200.76375 212.386703 
L 256.56375 212.386703 
L 256.56375 205.584427 
L 200.76375 205.584427 
z
" clip-path="url(#p32e30b7c7c)" style="fill: #f7b6d2; stroke: #ffffff; stroke-width: 0.5; stroke-linejoin: miter"/>
   </g>
   <g id="patch_53">
    <path d="M 312.36375 228.265555 
L 368.16375 228.265555 
L 368.16375 222.213404 
L 312.36375 222.213404 
z
" clip-path="url(#p32e30b7c7c)" style="fill: #f7b6d2; stroke: #ffffff; stroke-width: 0.5; stroke-linejoin: miter"/>
   </g>
   <g id="patch_54">
    <path d="M 423.96375 238.927431 
L 479.76375 238.927431 
L 479.76375 232.653653 
L 423.96375 232.653653 
z
" clip-path="url(#p32e30b7c7c)" style="fill: #f7b6d2; stroke: #ffffff; stroke-width: 0.5; stroke-linejoin: miter"/>
   </g>
   <g id="patch_55">
    <path d="M 535.56375 226.968791 
L 591.36375 226.968791 
L 591.36375 221.053027 
L 535.56375 221.053027 
z
" clip-path="url(#p32e30b7c7c)" style="fill: #f7b6d2; stroke: #ffffff; stroke-width: 0.5; stroke-linejoin: miter"/>
   </g>
   <g id="patch_56">
    <path d="M 647.16375 229.190195 
L 702.96375 229.190195 
L 702.96375 223.402293 
L 647.16375 223.402293 
z
" clip-path="url(#p32e30b7c7c)" style="fill: #f7b6d2; stroke: #ffffff; stroke-width: 0.5; stroke-linejoin: miter"/>
   </g>
   <g id="patch_57">
    <path d="M 89.16375 197.814184 
L 144.96375 197.814184 
L 144.96375 191.102605 
L 89.16375 191.102605 
z
" clip-path="url(#p32e30b7c7c)" style="fill: #c7c7c7; stroke: #ffffff; stroke-width: 0.5; stroke-linejoin: miter"/>
   </g>
   <g id="patch_58">
    <path d="M 200.76375 205.584427 
L 256.56375 205.584427 
L 256.56375 200.162317 
L 200.76375 200.162317 
z
" clip-path="url(#p32e30b7c7c)" style="fill: #c7c7c7; stroke: #ffffff; stroke-width: 0.5; stroke-linejoin: miter"/>
   </g>
   <g id="patch_59">
    <path d="M 312.36375 222.213404 
L 368.16375 222.213404 
L 368.16375 217.805958 
L 312.36375 217.805958 
z
" clip-path="url(#p32e30b7c7c)" style="fill: #c7c7c7; stroke: #ffffff; stroke-width: 0.5; stroke-linejoin: miter"/>
   </g>
   <g id="patch_60">
    <path d="M 423.96375 232.653653 
L 479.76375 232.653653 
L 479.76375 227.664889 
L 423.96375 227.664889 
z
" clip-path="url(#p32e30b7c7c)" style="fill: #c7c7c7; stroke: #ffffff; stroke-width: 0.5; stroke-linejoin: miter"/>
   </g>
   <g id="patch_61">
    <path d="M 535.56375 221.053027 
L 591.36375 221.053027 
L 591.36375 216.825261 
L 535.56375 216.825261 
z
" clip-path="url(#p32e30b7c7c)" style="fill: #c7c7c7; stroke: #ffffff; stroke-width: 0.5; stroke-linejoin: miter"/>
   </g>
   <g id="patch_62">
    <path d="M 647.16375 223.402293 
L 702.96375 223.402293 
L 702.96375 219.67129 
L 647.16375 219.67129 
z
" clip-path="url(#p32e30b7c7c)" style="fill: #c7c7c7; stroke: #ffffff; stroke-width: 0.5; stroke-linejoin: miter"/>
   </g>
   <g id="patch_63">
    <path d="M 89.16375 191.102605 
L 144.96375 191.102605 
L 144.96375 185.036049 
L 89.16375 185.036049 
z
" clip-path="url(#p32e30b7c7c)" style="fill: #bcbd22; stroke: #ffffff; stroke-width: 0.5; stroke-linejoin: miter"/>
   </g>
   <g id="patch_64">
    <path d="M 200.76375 200.162317 
L 256.56375 200.162317 
L 256.56375 195.192037 
L 200.76375 195.192037 
z
" clip-path="url(#p32e30b7c7c)" style="fill: #bcbd22; stroke: #ffffff; stroke-width: 0.5; stroke-linejoin: miter"/>
   </g>
   <g id="patch_65">
    <path d="M 312.36375 217.805958 
L 368.16375 217.805958 
L 368.16375 213.561591 
L 312.36375 213.561591 
z
" clip-path="url(#p32e30b7c7c)" style="fill: #bcbd22; stroke: #ffffff; stroke-width: 0.5; stroke-linejoin: miter"/>
   </g>
   <g id="patch_66">
    <path d="M 423.96375 227.664889 
L 479.76375 227.664889 
L 479.76375 223.042751 
L 423.96375 223.042751 
z
" clip-path="url(#p32e30b7c7c)" style="fill: #bcbd22; stroke: #ffffff; stroke-width: 0.5; stroke-linejoin: miter"/>
   </g>
   <g id="patch_67">
    <path d="M 535.56375 216.825261 
L 591.36375 216.825261 
L 591.36375 212.773483 
L 535.56375 212.773483 
z
" clip-path="url(#p32e30b7c7c)" style="fill: #bcbd22; stroke: #ffffff; stroke-width: 0.5; stroke-linejoin: miter"/>
   </g>
   <g id="patch_68">
    <path d="M 647.16375 219.67129 
L 702.96375 219.67129 
L 702.96375 215.997283 
L 647.16375 215.997283 
z
" clip-path="url(#p32e30b7c7c)" style="fill: #bcbd22; stroke: #ffffff; stroke-width: 0.5; stroke-linejoin: miter"/>
   </g>
   <g id="patch_69">
    <path d="M 89.16375 185.036049 
L 144.96375 185.036049 
L 144.96375 179.370708 
L 89.16375 179.370708 
z
" clip-path="url(#p32e30b7c7c)" style="fill: #17becf; stroke: #ffffff; stroke-width: 0.5; stroke-linejoin: miter"/>
   </g>
   <g id="patch_70">
    <path d="M 200.76375 195.192037 
L 256.56375 195.192037 
L 256.56375 190.389239 
L 200.76375 190.389239 
z
" clip-path="url(#p32e30b7c7c)" style="fill: #17becf; stroke: #ffffff; stroke-width: 0.5; stroke-linejoin: miter"/>
   </g>
   <g id="patch_71">
    <path d="M 312.36375 213.561591 
L 368.16375 213.561591 
L 368.16375 208.719587 
L 312.36375 208.719587 
z
" clip-path="url(#p32e30b7c7c)" style="fill: #17becf; stroke: #ffffff; stroke-width: 0.5; stroke-linejoin: miter"/>
   </g>
   <g id="patch_72">
    <path d="M 423.96375 223.042751 
L 479.76375 223.042751 
L 479.76375 218.58301 
L 423.96375 218.58301 
z
" clip-path="url(#p32e30b7c7c)" style="fill: #17becf; stroke: #ffffff; stroke-width: 0.5; stroke-linejoin: miter"/>
   </g>
   <g id="patch_73">
    <path d="M 535.56375 212.773483 
L 591.36375 212.773483 
L 591.36375 208.852832 
L 535.56375 208.852832 
z
" clip-path="url(#p32e30b7c7c)" style="fill: #17becf; stroke: #ffffff; stroke-width: 0.5; stroke-linejoin: miter"/>
   </g>
   <g id="patch_74">
    <path d="M 647.16375 215.997283 
L 702.96375 215.997283 
L 702.96375 212.79215 
L 647.16375 212.79215 
z
" clip-path="url(#p32e30b7c7c)" style="fill: #17becf; stroke: #ffffff; stroke-width: 0.5; stroke-linejoin: miter"/>
   </g>
   <g id="patch_75">
    <path d="M 89.16375 179.370708 
L 144.96375 179.370708 
L 144.96375 70.879 
L 89.16375 70.879 
z
" clip-path="url(#p32e30b7c7c)" style="fill: #9edae5; stroke: #ffffff; stroke-width: 0.5; stroke-linejoin: miter"/>
   </g>
   <g id="patch_76">
    <path d="M 200.76375 190.389239 
L 256.56375 190.389239 
L 256.56375 92.42034 
L 200.76375 92.42034 
z
" clip-path="url(#p32e30b7c7c)" style="fill: #9edae5; stroke: #ffffff; stroke-width: 0.5; stroke-linejoin: miter"/>
   </g>
   <g id="patch_77">
    <path d="M 312.36375 208.719587 
L 368.16375 208.719587 
L 368.16375 114.094353 
L 312.36375 114.094353 
z
" clip-path="url(#p32e30b7c7c)" style="fill: #9edae5; stroke: #ffffff; stroke-width: 0.5; stroke-linejoin: miter"/>
   </g>
   <g id="patch_78">
    <path d="M 423.96375 218.58301 
L 479.76375 218.58301 
L 479.76375 124.121858 
L 423.96375 124.121858 
z
" clip-path="url(#p32e30b7c7c)" style="fill: #9edae5; stroke: #ffffff; stroke-width: 0.5; stroke-linejoin: miter"/>
   </g>
   <g id="patch_79">
    <path d="M 535.56375 208.852832 
L 591.36375 208.852832 
L 591.36375 115.727975 
L 535.56375 115.727975 
z
" clip-path="url(#p32e30b7c7c)" style="fill: #9edae5; stroke: #ffffff; stroke-width: 0.5; stroke-linejoin: miter"/>
   </g>
   <g id="patch_80">
    <path d="M 647.16375 212.79215 
L 702.96375 212.79215 
L 702.96375 123.427478 
L 647.16375 123.427478 
z
" clip-path="url(#p32e30b7c7c)" style="fill: #9edae5; stroke: #ffffff; stroke-width: 0.5; stroke-linejoin: miter"/>
   </g>
   <g id="patch_81">
    <path d="M 61.26375 440.479 
L 61.26375 52.399 
" style="fill: none; stroke: #000000; stroke-width: 0.8; stroke-linejoin: miter; stroke-linecap: square"/>
   </g>
   <g id="patch_82">
    <path d="M 730.86375 440.479 
L 730.86375 52.399 
" style="fill: none; stroke: #000000; stroke-width: 0.8; stroke-linejoin: miter; stroke-linecap: square"/>
   </g>
   <g id="patch_83">
    <path d="M 61.26375 440.479 
L 730.86375 440.479 
" style="fill: none; stroke: #000000; stroke-width: 0.8; stroke-linejoin: miter; stroke-linecap: square"/>
   </g>
   <g id="patch_84">
    <path d="M 61.26375 52.399 
L 730.86375 52.399 
" style="fill: none; stroke: #000000; stroke-width: 0.8; stroke-linejoin: miter; stroke-linecap: square"/>
   </g>
   <g id="text_16">
    <!-- Quinsigamond Community College -->
    <g transform="translate(241.035 19.3575) scale(0.16 -0.16)">
     <defs>
      <path id="DejaVuSans-Bold-51" d="M 2847 -84 
L 2753 -84 
Q 1600 -84 959 553 
Q 319 1191 319 2328 
Q 319 3463 958 4106 
Q 1597 4750 2719 4750 
Q 3853 4750 4486 4112 
Q 5119 3475 5119 2328 
Q 5119 1541 4783 972 
Q 4447 403 3816 116 
L 4756 -934 
L 3609 -934 
L 2847 -84 
z
M 2719 3878 
Q 2169 3878 1866 3472 
Q 1563 3066 1563 2328 
Q 1563 1578 1859 1179 
Q 2156 781 2719 781 
Q 3272 781 3575 1187 
Q 3878 1594 3878 2328 
Q 3878 3066 3575 3472 
Q 3272 3878 2719 3878 
z
" transform="scale(0.015625)"/>
      <path id="DejaVuSans-Bold-67" d="M 2919 594 
Q 2688 288 2409 144 
Q 2131 0 1766 0 
Q 1125 0 706 504 
Q 288 1009 288 1791 
Q 288 2575 706 3076 
Q 1125 3578 1766 3578 
Q 2131 3578 2409 3434 
Q 2688 3291 2919 2981 
L 2919 3500 
L 4044 3500 
L 4044 353 
Q 4044 -491 3511 -936 
Q 2978 -1381 1966 -1381 
Q 1638 -1381 1331 -1331 
Q 1025 -1281 716 -1178 
L 716 -306 
Q 1009 -475 1290 -558 
Q 1572 -641 1856 -641 
Q 2406 -641 2662 -400 
Q 2919 -159 2919 353 
L 2919 594 
z
M 2181 2772 
Q 1834 2772 1640 2515 
Q 1447 2259 1447 1791 
Q 1447 1309 1634 1061 
Q 1822 813 2181 813 
Q 2531 813 2725 1069 
Q 2919 1325 2919 1791 
Q 2919 2259 2725 2515 
Q 2531 2772 2181 2772 
z
" transform="scale(0.015625)"/>
      <path id="DejaVuSans-Bold-43" d="M 4288 256 
Q 3956 84 3597 -3 
Q 3238 -91 2847 -91 
Q 1681 -91 1000 561 
Q 319 1213 319 2328 
Q 319 3447 1000 4098 
Q 1681 4750 2847 4750 
Q 3238 4750 3597 4662 
Q 3956 4575 4288 4403 
L 4288 3438 
Q 3953 3666 3628 3772 
Q 3303 3878 2944 3878 
Q 2300 3878 1931 3465 
Q 1563 3053 1563 2328 
Q 1563 1606 1931 1193 
Q 2300 781 2944 781 
Q 3303 781 3628 887 
Q 3953 994 4288 1222 
L 4288 256 
z
" transform="scale(0.015625)"/>
      <path id="DejaVuSans-Bold-79" d="M 78 3500 
L 1197 3500 
L 2138 1125 
L 2938 3500 
L 4056 3500 
L 2584 -331 
Q 2363 -916 2067 -1148 
Q 1772 -1381 1288 -1381 
L 641 -1381 
L 641 -647 
L 991 -647 
Q 1275 -647 1404 -556 
Q 1534 -466 1606 -231 
L 1638 -134 
L 78 3500 
z
" transform="scale(0.015625)"/>
     </defs>
     <use xlink:href="#DejaVuSans-Bold-51"/>
     <use xlink:href="#DejaVuSans-Bold-75" x="85.009766"/>
     <use xlink:href="#DejaVuSans-Bold-69" x="156.201172"/>
     <use xlink:href="#DejaVuSans-Bold-6e" x="190.478516"/>
     <use xlink:href="#DejaVuSans-Bold-73" x="261.669922"/>
     <use xlink:href="#DejaVuSans-Bold-69" x="321.191406"/>
     <use xlink:href="#DejaVuSans-Bold-67" x="355.46875"/>
     <use xlink:href="#DejaVuSans-Bold-61" x="427.050781"/>
     <use xlink:href="#DejaVuSans-Bold-6d" x="494.53125"/>
     <use xlink:href="#DejaVuSans-Bold-6f" x="598.730469"/>
     <use xlink:href="#DejaVuSans-Bold-6e" x="667.431641"/>
     <use xlink:href="#DejaVuSans-Bold-64" x="738.623047"/>
     <use xlink:href="#DejaVuSans-Bold-20" x="810.205078"/>
     <use xlink:href="#DejaVuSans-Bold-43" x="845.019531"/>
     <use xlink:href="#DejaVuSans-Bold-6f" x="918.408203"/>
     <use xlink:href="#DejaVuSans-Bold-6d" x="987.109375"/>
     <use xlink:href="#DejaVuSans-Bold-6d" x="1091.308594"/>
     <use xlink:href="#DejaVuSans-Bold-75" x="1195.507812"/>
     <use xlink:href="#DejaVuSans-Bold-6e" x="1266.699219"/>
     <use xlink:href="#DejaVuSans-Bold-69" x="1337.890625"/>
     <use xlink:href="#DejaVuSans-Bold-74" x="1372.167969"/>
     <use xlink:href="#DejaVuSans-Bold-79" x="1419.970703"/>
     <use xlink:href="#DejaVuSans-Bold-20" x="1485.15625"/>
     <use xlink:href="#DejaVuSans-Bold-43" x="1519.970703"/>
     <use xlink:href="#DejaVuSans-Bold-6f" x="1593.359375"/>
     <use xlink:href="#DejaVuSans-Bold-6c" x="1662.060547"/>
     <use xlink:href="#DejaVuSans-Bold-6c" x="1696.337891"/>
     <use xlink:href="#DejaVuSans-Bold-65" x="1730.615234"/>
     <use xlink:href="#DejaVuSans-Bold-67" x="1798.4375"/>
     <use xlink:href="#DejaVuSans-Bold-65" x="1870.019531"/>
    </g>
    <!-- Projected In-State Freshman Pipeline -->
    <g transform="translate(227.71375 37.399) scale(0.16 -0.16)">
     <defs>
      <path id="DejaVuSans-Bold-49" d="M 588 4666 
L 1791 4666 
L 1791 0 
L 588 0 
L 588 4666 
z
" transform="scale(0.015625)"/>
      <path id="DejaVuSans-Bold-2d" d="M 347 2297 
L 2309 2297 
L 2309 1388 
L 347 1388 
L 347 2297 
z
" transform="scale(0.015625)"/>
      <path id="DejaVuSans-Bold-53" d="M 3834 4519 
L 3834 3531 
Q 3450 3703 3084 3790 
Q 2719 3878 2394 3878 
Q 1963 3878 1756 3759 
Q 1550 3641 1550 3391 
Q 1550 3203 1689 3098 
Q 1828 2994 2194 2919 
L 2706 2816 
Q 3484 2659 3812 2340 
Q 4141 2022 4141 1434 
Q 4141 663 3683 286 
Q 3225 -91 2284 -91 
Q 1841 -91 1394 -6 
Q 947 78 500 244 
L 500 1259 
Q 947 1022 1364 901 
Q 1781 781 2169 781 
Q 2563 781 2772 912 
Q 2981 1044 2981 1288 
Q 2981 1506 2839 1625 
Q 2697 1744 2272 1838 
L 1806 1941 
Q 1106 2091 782 2419 
Q 459 2747 459 3303 
Q 459 4000 909 4375 
Q 1359 4750 2203 4750 
Q 2588 4750 2994 4692 
Q 3400 4634 3834 4519 
z
" transform="scale(0.015625)"/>
      <path id="DejaVuSans-Bold-70" d="M 1656 506 
L 1656 -1331 
L 538 -1331 
L 538 3500 
L 1656 3500 
L 1656 2988 
Q 1888 3294 2169 3439 
Q 2450 3584 2816 3584 
Q 3463 3584 3878 3070 
Q 4294 2556 4294 1747 
Q 4294 938 3878 423 
Q 3463 -91 2816 -91 
Q 2450 -91 2169 54 
Q 1888 200 1656 506 
z
M 2400 2772 
Q 2041 2772 1848 2508 
Q 1656 2244 1656 1747 
Q 1656 1250 1848 986 
Q 2041 722 2400 722 
Q 2759 722 2948 984 
Q 3138 1247 3138 1747 
Q 3138 2247 2948 2509 
Q 2759 2772 2400 2772 
z
" transform="scale(0.015625)"/>
     </defs>
     <use xlink:href="#DejaVuSans-Bold-50"/>
     <use xlink:href="#DejaVuSans-Bold-72" x="73.291016"/>
     <use xlink:href="#DejaVuSans-Bold-6f" x="122.607422"/>
     <use xlink:href="#DejaVuSans-Bold-6a" x="191.308594"/>
     <use xlink:href="#DejaVuSans-Bold-65" x="225.585938"/>
     <use xlink:href="#DejaVuSans-Bold-63" x="293.408203"/>
     <use xlink:href="#DejaVuSans-Bold-74" x="352.685547"/>
     <use xlink:href="#DejaVuSans-Bold-65" x="400.488281"/>
     <use xlink:href="#DejaVuSans-Bold-64" x="468.310547"/>
     <use xlink:href="#DejaVuSans-Bold-20" x="539.892578"/>
     <use xlink:href="#DejaVuSans-Bold-49" x="574.707031"/>
     <use xlink:href="#DejaVuSans-Bold-6e" x="611.914062"/>
     <use xlink:href="#DejaVuSans-Bold-2d" x="683.105469"/>
     <use xlink:href="#DejaVuSans-Bold-53" x="724.609375"/>
     <use xlink:href="#DejaVuSans-Bold-74" x="796.630859"/>
     <use xlink:href="#DejaVuSans-Bold-61" x="844.433594"/>
     <use xlink:href="#DejaVuSans-Bold-74" x="911.914062"/>
     <use xlink:href="#DejaVuSans-Bold-65" x="959.716797"/>
     <use xlink:href="#DejaVuSans-Bold-20" x="1027.539062"/>
     <use xlink:href="#DejaVuSans-Bold-46" x="1062.353516"/>
     <use xlink:href="#DejaVuSans-Bold-72" x="1124.289062"/>
     <use xlink:href="#DejaVuSans-Bold-65" x="1173.605469"/>
     <use xlink:href="#DejaVuSans-Bold-73" x="1241.427734"/>
     <use xlink:href="#DejaVuSans-Bold-68" x="1300.949219"/>
     <use xlink:href="#DejaVuSans-Bold-6d" x="1372.140625"/>
     <use xlink:href="#DejaVuSans-Bold-61" x="1476.339844"/>
     <use xlink:href="#DejaVuSans-Bold-6e" x="1543.820312"/>
     <use xlink:href="#DejaVuSans-Bold-20" x="1615.011719"/>
     <use xlink:href="#DejaVuSans-Bold-50" x="1649.826172"/>
     <use xlink:href="#DejaVuSans-Bold-69" x="1723.117188"/>
     <use xlink:href="#DejaVuSans-Bold-70" x="1757.394531"/>
     <use xlink:href="#DejaVuSans-Bold-65" x="1828.976562"/>
     <use xlink:href="#DejaVuSans-Bold-6c" x="1896.798828"/>
     <use xlink:href="#DejaVuSans-Bold-69" x="1931.076172"/>
     <use xlink:href="#DejaVuSans-Bold-6e" x="1965.353516"/>
     <use xlink:href="#DejaVuSans-Bold-65" x="2036.544922"/>
    </g>
   </g>
   <g id="legend_1">
    <g id="patch_85">
     <path d="M 751.25575 265.89275 
L 898.854188 265.89275 
Q 900.854188 265.89275 900.854188 263.89275 
L 900.854188 59.399 
Q 900.854188 57.399 898.854188 57.399 
L 751.25575 57.399 
Q 749.25575 57.399 749.25575 59.399 
L 749.25575 263.89275 
Q 749.25575 265.89275 751.25575 265.89275 
z
" style="fill: #ffffff; opacity: 0.8; stroke: #cccccc; stroke-linejoin: miter"/>
    </g>
    <g id="text_17">
     <!-- Feeder Municipalities -->
     <g transform="translate(772.179969 68.997437) scale(0.1 -0.1)">
      <defs>
       <path id="DejaVuSans-46" d="M 628 4666 
L 3309 4666 
L 3309 4134 
L 1259 4134 
L 1259 2759 
L 3109 2759 
L 3109 2228 
L 1259 2228 
L 1259 0 
L 628 0 
L 628 4666 
z
" transform="scale(0.015625)"/>
       <path id="DejaVuSans-65" d="M 3597 1894 
L 3597 1613 
L 953 1613 
Q 991 1019 1311 708 
Q 1631 397 2203 397 
Q 2534 397 2845 478 
Q 3156 559 3463 722 
L 3463 178 
Q 3153 47 2828 -22 
Q 2503 -91 2169 -91 
Q 1331 -91 842 396 
Q 353 884 353 1716 
Q 353 2575 817 3079 
Q 1281 3584 2069 3584 
Q 2775 3584 3186 3129 
Q 3597 2675 3597 1894 
z
M 3022 2063 
Q 3016 2534 2758 2815 
Q 2500 3097 2075 3097 
Q 1594 3097 1305 2825 
Q 1016 2553 972 2059 
L 3022 2063 
z
" transform="scale(0.015625)"/>
       <path id="DejaVuSans-64" d="M 2906 2969 
L 2906 4863 
L 3481 4863 
L 3481 0 
L 2906 0 
L 2906 525 
Q 2725 213 2448 61 
Q 2172 -91 1784 -91 
Q 1150 -91 751 415 
Q 353 922 353 1747 
Q 353 2572 751 3078 
Q 1150 3584 1784 3584 
Q 2172 3584 2448 3432 
Q 2725 3281 2906 2969 
z
M 947 1747 
Q 947 1113 1208 752 
Q 1469 391 1925 391 
Q 2381 391 2643 752 
Q 2906 1113 2906 1747 
Q 2906 2381 2643 2742 
Q 2381 3103 1925 3103 
Q 1469 3103 1208 2742 
Q 947 2381 947 1747 
z
" transform="scale(0.015625)"/>
       <path id="DejaVuSans-72" d="M 2631 2963 
Q 2534 3019 2420 3045 
Q 2306 3072 2169 3072 
Q 1681 3072 1420 2755 
Q 1159 2438 1159 1844 
L 1159 0 
L 581 0 
L 581 3500 
L 1159 3500 
L 1159 2956 
Q 1341 3275 1631 3429 
Q 1922 3584 2338 3584 
Q 2397 3584 2469 3576 
Q 2541 3569 2628 3553 
L 2631 2963 
z
" transform="scale(0.015625)"/>
       <path id="DejaVuSans-20" transform="scale(0.015625)"/>
       <path id="DejaVuSans-4d" d="M 628 4666 
L 1569 4666 
L 2759 1491 
L 3956 4666 
L 4897 4666 
L 4897 0 
L 4281 0 
L 4281 4097 
L 3078 897 
L 2444 897 
L 1241 4097 
L 1241 0 
L 628 0 
L 628 4666 
z
" transform="scale(0.015625)"/>
       <path id="DejaVuSans-75" d="M 544 1381 
L 544 3500 
L 1119 3500 
L 1119 1403 
Q 1119 906 1312 657 
Q 1506 409 1894 409 
Q 2359 409 2629 706 
Q 2900 1003 2900 1516 
L 2900 3500 
L 3475 3500 
L 3475 0 
L 2900 0 
L 2900 538 
Q 2691 219 2414 64 
Q 2138 -91 1772 -91 
Q 1169 -91 856 284 
Q 544 659 544 1381 
z
M 1991 3584 
L 1991 3584 
z
" transform="scale(0.015625)"/>
       <path id="DejaVuSans-6e" d="M 3513 2113 
L 3513 0 
L 2938 0 
L 2938 2094 
Q 2938 2591 2744 2837 
Q 2550 3084 2163 3084 
Q 1697 3084 1428 2787 
Q 1159 2491 1159 1978 
L 1159 0 
L 581 0 
L 581 3500 
L 1159 3500 
L 1159 2956 
Q 1366 3272 1645 3428 
Q 1925 3584 2291 3584 
Q 2894 3584 3203 3211 
Q 3513 2838 3513 2113 
z
" transform="scale(0.015625)"/>
       <path id="DejaVuSans-69" d="M 603 3500 
L 1178 3500 
L 1178 0 
L 603 0 
L 603 3500 
z
M 603 4863 
L 1178 4863 
L 1178 4134 
L 603 4134 
L 603 4863 
z
" transform="scale(0.015625)"/>
       <path id="DejaVuSans-63" d="M 3122 3366 
L 3122 2828 
Q 2878 2963 2633 3030 
Q 2388 3097 2138 3097 
Q 1578 3097 1268 2742 
Q 959 2388 959 1747 
Q 959 1106 1268 751 
Q 1578 397 2138 397 
Q 2388 397 2633 464 
Q 2878 531 3122 666 
L 3122 134 
Q 2881 22 2623 -34 
Q 2366 -91 2075 -91 
Q 1284 -91 818 406 
Q 353 903 353 1747 
Q 353 2603 823 3093 
Q 1294 3584 2113 3584 
Q 2378 3584 2631 3529 
Q 2884 3475 3122 3366 
z
" transform="scale(0.015625)"/>
       <path id="DejaVuSans-70" d="M 1159 525 
L 1159 -1331 
L 581 -1331 
L 581 3500 
L 1159 3500 
L 1159 2969 
Q 1341 3281 1617 3432 
Q 1894 3584 2278 3584 
Q 2916 3584 3314 3078 
Q 3713 2572 3713 1747 
Q 3713 922 3314 415 
Q 2916 -91 2278 -91 
Q 1894 -91 1617 61 
Q 1341 213 1159 525 
z
M 3116 1747 
Q 3116 2381 2855 2742 
Q 2594 3103 2138 3103 
Q 1681 3103 1420 2742 
Q 1159 2381 1159 1747 
Q 1159 1113 1420 752 
Q 1681 391 2138 391 
Q 2594 391 2855 752 
Q 3116 1113 3116 1747 
z
" transform="scale(0.015625)"/>
       <path id="DejaVuSans-61" d="M 2194 1759 
Q 1497 1759 1228 1600 
Q 959 1441 959 1056 
Q 959 750 1161 570 
Q 1363 391 1709 391 
Q 2188 391 2477 730 
Q 2766 1069 2766 1631 
L 2766 1759 
L 2194 1759 
z
M 3341 1997 
L 3341 0 
L 2766 0 
L 2766 531 
Q 2569 213 2275 61 
Q 1981 -91 1556 -91 
Q 1019 -91 701 211 
Q 384 513 384 1019 
Q 384 1609 779 1909 
Q 1175 2209 1959 2209 
L 2766 2209 
L 2766 2266 
Q 2766 2663 2505 2880 
Q 2244 3097 1772 3097 
Q 1472 3097 1187 3025 
Q 903 2953 641 2809 
L 641 3341 
Q 956 3463 1253 3523 
Q 1550 3584 1831 3584 
Q 2591 3584 2966 3190 
Q 3341 2797 3341 1997 
z
" transform="scale(0.015625)"/>
       <path id="DejaVuSans-6c" d="M 603 4863 
L 1178 4863 
L 1178 0 
L 603 0 
L 603 4863 
z
" transform="scale(0.015625)"/>
       <path id="DejaVuSans-74" d="M 1172 4494 
L 1172 3500 
L 2356 3500 
L 2356 3053 
L 1172 3053 
L 1172 1153 
Q 1172 725 1289 603 
Q 1406 481 1766 481 
L 2356 481 
L 2356 0 
L 1766 0 
Q 1100 0 847 248 
Q 594 497 594 1153 
L 594 3053 
L 172 3053 
L 172 3500 
L 594 3500 
L 594 4494 
L 1172 4494 
z
" transform="scale(0.015625)"/>
       <path id="DejaVuSans-73" d="M 2834 3397 
L 2834 2853 
Q 2591 2978 2328 3040 
Q 2066 3103 1784 3103 
Q 1356 3103 1142 2972 
Q 928 2841 928 2578 
Q 928 2378 1081 2264 
Q 1234 2150 1697 2047 
L 1894 2003 
Q 2506 1872 2764 1633 
Q 3022 1394 3022 966 
Q 3022 478 2636 193 
Q 2250 -91 1575 -91 
Q 1294 -91 989 -36 
Q 684 19 347 128 
L 347 722 
Q 666 556 975 473 
Q 1284 391 1588 391 
Q 1994 391 2212 530 
Q 2431 669 2431 922 
Q 2431 1156 2273 1281 
Q 2116 1406 1581 1522 
L 1381 1569 
Q 847 1681 609 1914 
Q 372 2147 372 2553 
Q 372 3047 722 3315 
Q 1072 3584 1716 3584 
Q 2034 3584 2315 3537 
Q 2597 3491 2834 3397 
z
" transform="scale(0.015625)"/>
      </defs>
      <use xlink:href="#DejaVuSans-46"/>
      <use xlink:href="#DejaVuSans-65" x="52.019531"/>
      <use xlink:href="#DejaVuSans-65" x="113.542969"/>
      <use xlink:href="#DejaVuSans-64" x="175.066406"/>
      <use xlink:href="#DejaVuSans-65" x="238.542969"/>
      <use xlink:href="#DejaVuSans-72" x="300.066406"/>
      <use xlink:href="#DejaVuSans-20" x="341.179688"/>
      <use xlink:href="#DejaVuSans-4d" x="372.966797"/>
      <use xlink:href="#DejaVuSans-75" x="459.246094"/>
      <use xlink:href="#DejaVuSans-6e" x="522.625"/>
      <use xlink:href="#DejaVuSans-69" x="586.003906"/>
      <use xlink:href="#DejaVuSans-63" x="613.787109"/>
      <use xlink:href="#DejaVuSans-69" x="668.767578"/>
      <use xlink:href="#DejaVuSans-70" x="696.550781"/>
      <use xlink:href="#DejaVuSans-61" x="760.027344"/>
      <use xlink:href="#DejaVuSans-6c" x="821.306641"/>
      <use xlink:href="#DejaVuSans-69" x="849.089844"/>
      <use xlink:href="#DejaVuSans-74" x="876.873047"/>
      <use xlink:href="#DejaVuSans-69" x="916.082031"/>
      <use xlink:href="#DejaVuSans-65" x="943.865234"/>
      <use xlink:href="#DejaVuSans-73" x="1005.388672"/>
     </g>
    </g>
    <g id="patch_86">
     <path d="M 753.25575 83.675562 
L 773.25575 83.675562 
L 773.25575 76.675562 
L 753.25575 76.675562 
z
" style="fill: #1f77b4; stroke: #ffffff; stroke-width: 0.5; stroke-linejoin: miter"/>
    </g>
    <g id="text_18">
     <!-- WORCESTER -->
     <g transform="translate(781.25575 83.675562) scale(0.1 -0.1)">
      <defs>
       <path id="DejaVuSans-57" d="M 213 4666 
L 850 4666 
L 1831 722 
L 2809 4666 
L 3519 4666 
L 4500 722 
L 5478 4666 
L 6119 4666 
L 4947 0 
L 4153 0 
L 3169 4050 
L 2175 0 
L 1381 0 
L 213 4666 
z
" transform="scale(0.015625)"/>
       <path id="DejaVuSans-4f" d="M 2522 4238 
Q 1834 4238 1429 3725 
Q 1025 3213 1025 2328 
Q 1025 1447 1429 934 
Q 1834 422 2522 422 
Q 3209 422 3611 934 
Q 4013 1447 4013 2328 
Q 4013 3213 3611 3725 
Q 3209 4238 2522 4238 
z
M 2522 4750 
Q 3503 4750 4090 4092 
Q 4678 3434 4678 2328 
Q 4678 1225 4090 567 
Q 3503 -91 2522 -91 
Q 1538 -91 948 565 
Q 359 1222 359 2328 
Q 359 3434 948 4092 
Q 1538 4750 2522 4750 
z
" transform="scale(0.015625)"/>
       <path id="DejaVuSans-52" d="M 2841 2188 
Q 3044 2119 3236 1894 
Q 3428 1669 3622 1275 
L 4263 0 
L 3584 0 
L 2988 1197 
Q 2756 1666 2539 1819 
Q 2322 1972 1947 1972 
L 1259 1972 
L 1259 0 
L 628 0 
L 628 4666 
L 2053 4666 
Q 2853 4666 3247 4331 
Q 3641 3997 3641 3322 
Q 3641 2881 3436 2590 
Q 3231 2300 2841 2188 
z
M 1259 4147 
L 1259 2491 
L 2053 2491 
Q 2509 2491 2742 2702 
Q 2975 2913 2975 3322 
Q 2975 3731 2742 3939 
Q 2509 4147 2053 4147 
L 1259 4147 
z
" transform="scale(0.015625)"/>
       <path id="DejaVuSans-43" d="M 4122 4306 
L 4122 3641 
Q 3803 3938 3442 4084 
Q 3081 4231 2675 4231 
Q 1875 4231 1450 3742 
Q 1025 3253 1025 2328 
Q 1025 1406 1450 917 
Q 1875 428 2675 428 
Q 3081 428 3442 575 
Q 3803 722 4122 1019 
L 4122 359 
Q 3791 134 3420 21 
Q 3050 -91 2638 -91 
Q 1578 -91 968 557 
Q 359 1206 359 2328 
Q 359 3453 968 4101 
Q 1578 4750 2638 4750 
Q 3056 4750 3426 4639 
Q 3797 4528 4122 4306 
z
" transform="scale(0.015625)"/>
       <path id="DejaVuSans-45" d="M 628 4666 
L 3578 4666 
L 3578 4134 
L 1259 4134 
L 1259 2753 
L 3481 2753 
L 3481 2222 
L 1259 2222 
L 1259 531 
L 3634 531 
L 3634 0 
L 628 0 
L 628 4666 
z
" transform="scale(0.015625)"/>
       <path id="DejaVuSans-53" d="M 3425 4513 
L 3425 3897 
Q 3066 4069 2747 4153 
Q 2428 4238 2131 4238 
Q 1616 4238 1336 4038 
Q 1056 3838 1056 3469 
Q 1056 3159 1242 3001 
Q 1428 2844 1947 2747 
L 2328 2669 
Q 3034 2534 3370 2195 
Q 3706 1856 3706 1288 
Q 3706 609 3251 259 
Q 2797 -91 1919 -91 
Q 1588 -91 1214 -16 
Q 841 59 441 206 
L 441 856 
Q 825 641 1194 531 
Q 1563 422 1919 422 
Q 2459 422 2753 634 
Q 3047 847 3047 1241 
Q 3047 1584 2836 1778 
Q 2625 1972 2144 2069 
L 1759 2144 
Q 1053 2284 737 2584 
Q 422 2884 422 3419 
Q 422 4038 858 4394 
Q 1294 4750 2059 4750 
Q 2388 4750 2728 4690 
Q 3069 4631 3425 4513 
z
" transform="scale(0.015625)"/>
       <path id="DejaVuSans-54" d="M -19 4666 
L 3928 4666 
L 3928 4134 
L 2272 4134 
L 2272 0 
L 1638 0 
L 1638 4134 
L -19 4134 
L -19 4666 
z
" transform="scale(0.015625)"/>
      </defs>
      <use xlink:href="#DejaVuSans-57"/>
      <use xlink:href="#DejaVuSans-4f" x="98.876953"/>
      <use xlink:href="#DejaVuSans-52" x="177.587891"/>
      <use xlink:href="#DejaVuSans-43" x="242.070312"/>
      <use xlink:href="#DejaVuSans-45" x="311.894531"/>
      <use xlink:href="#DejaVuSans-53" x="375.078125"/>
      <use xlink:href="#DejaVuSans-54" x="438.554688"/>
      <use xlink:href="#DejaVuSans-45" x="499.638672"/>
      <use xlink:href="#DejaVuSans-52" x="562.822266"/>
     </g>
    </g>
    <g id="patch_87">
     <path d="M 753.25575 98.353687 
L 773.25575 98.353687 
L 773.25575 91.353687 
L 753.25575 91.353687 
z
" style="fill: #aec7e8; stroke: #ffffff; stroke-width: 0.5; stroke-linejoin: miter"/>
    </g>
    <g id="text_19">
     <!-- SHREWSBURY -->
     <g transform="translate(781.25575 98.353687) scale(0.1 -0.1)">
      <defs>
       <path id="DejaVuSans-48" d="M 628 4666 
L 1259 4666 
L 1259 2753 
L 3553 2753 
L 3553 4666 
L 4184 4666 
L 4184 0 
L 3553 0 
L 3553 2222 
L 1259 2222 
L 1259 0 
L 628 0 
L 628 4666 
z
" transform="scale(0.015625)"/>
       <path id="DejaVuSans-42" d="M 1259 2228 
L 1259 519 
L 2272 519 
Q 2781 519 3026 730 
Q 3272 941 3272 1375 
Q 3272 1813 3026 2020 
Q 2781 2228 2272 2228 
L 1259 2228 
z
M 1259 4147 
L 1259 2741 
L 2194 2741 
Q 2656 2741 2882 2914 
Q 3109 3088 3109 3444 
Q 3109 3797 2882 3972 
Q 2656 4147 2194 4147 
L 1259 4147 
z
M 628 4666 
L 2241 4666 
Q 2963 4666 3353 4366 
Q 3744 4066 3744 3513 
Q 3744 3084 3544 2831 
Q 3344 2578 2956 2516 
Q 3422 2416 3680 2098 
Q 3938 1781 3938 1306 
Q 3938 681 3513 340 
Q 3088 0 2303 0 
L 628 0 
L 628 4666 
z
" transform="scale(0.015625)"/>
       <path id="DejaVuSans-55" d="M 556 4666 
L 1191 4666 
L 1191 1831 
Q 1191 1081 1462 751 
Q 1734 422 2344 422 
Q 2950 422 3222 751 
Q 3494 1081 3494 1831 
L 3494 4666 
L 4128 4666 
L 4128 1753 
Q 4128 841 3676 375 
Q 3225 -91 2344 -91 
Q 1459 -91 1007 375 
Q 556 841 556 1753 
L 556 4666 
z
" transform="scale(0.015625)"/>
       <path id="DejaVuSans-59" d="M -13 4666 
L 666 4666 
L 1959 2747 
L 3244 4666 
L 3922 4666 
L 2272 2222 
L 2272 0 
L 1638 0 
L 1638 2222 
L -13 4666 
z
" transform="scale(0.015625)"/>
      </defs>
      <use xlink:href="#DejaVuSans-53"/>
      <use xlink:href="#DejaVuSans-48" x="63.476562"/>
      <use xlink:href="#DejaVuSans-52" x="138.671875"/>
      <use xlink:href="#DejaVuSans-45" x="208.154297"/>
      <use xlink:href="#DejaVuSans-57" x="271.337891"/>
      <use xlink:href="#DejaVuSans-53" x="370.214844"/>
      <use xlink:href="#DejaVuSans-42" x="433.691406"/>
      <use xlink:href="#DejaVuSans-55" x="502.294922"/>
      <use xlink:href="#DejaVuSans-52" x="575.488281"/>
      <use xlink:href="#DejaVuSans-59" x="638.595703"/>
     </g>
    </g>
    <g id="patch_88">
     <path d="M 753.25575 113.031813 
L 773.25575 113.031813 
L 773.25575 106.031813 
L 753.25575 106.031813 
z
" style="fill: #ffbb78; stroke: #ffffff; stroke-width: 0.5; stroke-linejoin: miter"/>
    </g>
    <g id="text_20">
     <!-- SOUTHBRIDGE -->
     <g transform="translate(781.25575 113.031813) scale(0.1 -0.1)">
      <defs>
       <path id="DejaVuSans-49" d="M 628 4666 
L 1259 4666 
L 1259 0 
L 628 0 
L 628 4666 
z
" transform="scale(0.015625)"/>
       <path id="DejaVuSans-44" d="M 1259 4147 
L 1259 519 
L 2022 519 
Q 2988 519 3436 956 
Q 3884 1394 3884 2338 
Q 3884 3275 3436 3711 
Q 2988 4147 2022 4147 
L 1259 4147 
z
M 628 4666 
L 1925 4666 
Q 3281 4666 3915 4102 
Q 4550 3538 4550 2338 
Q 4550 1131 3912 565 
Q 3275 0 1925 0 
L 628 0 
L 628 4666 
z
" transform="scale(0.015625)"/>
       <path id="DejaVuSans-47" d="M 3809 666 
L 3809 1919 
L 2778 1919 
L 2778 2438 
L 4434 2438 
L 4434 434 
Q 4069 175 3628 42 
Q 3188 -91 2688 -91 
Q 1594 -91 976 548 
Q 359 1188 359 2328 
Q 359 3472 976 4111 
Q 1594 4750 2688 4750 
Q 3144 4750 3555 4637 
Q 3966 4525 4313 4306 
L 4313 3634 
Q 3963 3931 3569 4081 
Q 3175 4231 2741 4231 
Q 1884 4231 1454 3753 
Q 1025 3275 1025 2328 
Q 1025 1384 1454 906 
Q 1884 428 2741 428 
Q 3075 428 3337 486 
Q 3600 544 3809 666 
z
" transform="scale(0.015625)"/>
      </defs>
      <use xlink:href="#DejaVuSans-53"/>
      <use xlink:href="#DejaVuSans-4f" x="63.476562"/>
      <use xlink:href="#DejaVuSans-55" x="142.1875"/>
      <use xlink:href="#DejaVuSans-54" x="215.380859"/>
      <use xlink:href="#DejaVuSans-48" x="276.464844"/>
      <use xlink:href="#DejaVuSans-42" x="351.660156"/>
      <use xlink:href="#DejaVuSans-52" x="420.263672"/>
      <use xlink:href="#DejaVuSans-49" x="489.746094"/>
      <use xlink:href="#DejaVuSans-44" x="519.238281"/>
      <use xlink:href="#DejaVuSans-47" x="596.240234"/>
      <use xlink:href="#DejaVuSans-45" x="673.730469"/>
     </g>
    </g>
    <g id="patch_89">
     <path d="M 753.25575 127.709937 
L 773.25575 127.709937 
L 773.25575 120.709937 
L 753.25575 120.709937 
z
" style="fill: #98df8a; stroke: #ffffff; stroke-width: 0.5; stroke-linejoin: miter"/>
    </g>
    <g id="text_21">
     <!-- HOLDEN -->
     <g transform="translate(781.25575 127.709937) scale(0.1 -0.1)">
      <defs>
       <path id="DejaVuSans-4c" d="M 628 4666 
L 1259 4666 
L 1259 531 
L 3531 531 
L 3531 0 
L 628 0 
L 628 4666 
z
" transform="scale(0.015625)"/>
       <path id="DejaVuSans-4e" d="M 628 4666 
L 1478 4666 
L 3547 763 
L 3547 4666 
L 4159 4666 
L 4159 0 
L 3309 0 
L 1241 3903 
L 1241 0 
L 628 0 
L 628 4666 
z
" transform="scale(0.015625)"/>
      </defs>
      <use xlink:href="#DejaVuSans-48"/>
      <use xlink:href="#DejaVuSans-4f" x="75.195312"/>
      <use xlink:href="#DejaVuSans-4c" x="153.90625"/>
      <use xlink:href="#DejaVuSans-44" x="209.619141"/>
      <use xlink:href="#DejaVuSans-45" x="286.621094"/>
      <use xlink:href="#DejaVuSans-4e" x="349.804688"/>
     </g>
    </g>
    <g id="patch_90">
     <path d="M 753.25575 142.388062 
L 773.25575 142.388062 
L 773.25575 135.388062 
L 753.25575 135.388062 
z
" style="fill: #d62728; stroke: #ffffff; stroke-width: 0.5; stroke-linejoin: miter"/>
    </g>
    <g id="text_22">
     <!-- MARLBOROUGH -->
     <g transform="translate(781.25575 142.388062) scale(0.1 -0.1)">
      <defs>
       <path id="DejaVuSans-41" d="M 2188 4044 
L 1331 1722 
L 3047 1722 
L 2188 4044 
z
M 1831 4666 
L 2547 4666 
L 4325 0 
L 3669 0 
L 3244 1197 
L 1141 1197 
L 716 0 
L 50 0 
L 1831 4666 
z
" transform="scale(0.015625)"/>
      </defs>
      <use xlink:href="#DejaVuSans-4d"/>
      <use xlink:href="#DejaVuSans-41" x="86.279297"/>
      <use xlink:href="#DejaVuSans-52" x="154.6875"/>
      <use xlink:href="#DejaVuSans-4c" x="224.169922"/>
      <use xlink:href="#DejaVuSans-42" x="279.882812"/>
      <use xlink:href="#DejaVuSans-4f" x="346.736328"/>
      <use xlink:href="#DejaVuSans-52" x="425.447266"/>
      <use xlink:href="#DejaVuSans-4f" x="494.929688"/>
      <use xlink:href="#DejaVuSans-55" x="573.640625"/>
      <use xlink:href="#DejaVuSans-47" x="646.833984"/>
      <use xlink:href="#DejaVuSans-48" x="724.324219"/>
     </g>
    </g>
    <g id="patch_91">
     <path d="M 753.25575 157.066187 
L 773.25575 157.066187 
L 773.25575 150.066187 
L 753.25575 150.066187 
z
" style="fill: #9467bd; stroke: #ffffff; stroke-width: 0.5; stroke-linejoin: miter"/>
    </g>
    <g id="text_23">
     <!-- AUBURN -->
     <g transform="translate(781.25575 157.066187) scale(0.1 -0.1)">
      <use xlink:href="#DejaVuSans-41"/>
      <use xlink:href="#DejaVuSans-55" x="68.408203"/>
      <use xlink:href="#DejaVuSans-42" x="141.601562"/>
      <use xlink:href="#DejaVuSans-55" x="210.205078"/>
      <use xlink:href="#DejaVuSans-52" x="283.398438"/>
      <use xlink:href="#DejaVuSans-4e" x="352.880859"/>
     </g>
    </g>
    <g id="patch_92">
     <path d="M 753.25575 171.744312 
L 773.25575 171.744312 
L 773.25575 164.744312 
L 753.25575 164.744312 
z
" style="fill: #8c564b; stroke: #ffffff; stroke-width: 0.5; stroke-linejoin: miter"/>
    </g>
    <g id="text_24">
     <!-- GRAFTON -->
     <g transform="translate(781.25575 171.744312) scale(0.1 -0.1)">
      <use xlink:href="#DejaVuSans-47"/>
      <use xlink:href="#DejaVuSans-52" x="77.490234"/>
      <use xlink:href="#DejaVuSans-41" x="142.972656"/>
      <use xlink:href="#DejaVuSans-46" x="211.380859"/>
      <use xlink:href="#DejaVuSans-54" x="267.150391"/>
      <use xlink:href="#DejaVuSans-4f" x="328.234375"/>
      <use xlink:href="#DejaVuSans-4e" x="406.945312"/>
     </g>
    </g>
    <g id="patch_93">
     <path d="M 753.25575 186.422437 
L 773.25575 186.422437 
L 773.25575 179.422437 
L 753.25575 179.422437 
z
" style="fill: #c49c94; stroke: #ffffff; stroke-width: 0.5; stroke-linejoin: miter"/>
    </g>
    <g id="text_25">
     <!-- WEBSTER -->
     <g transform="translate(781.25575 186.422437) scale(0.1 -0.1)">
      <use xlink:href="#DejaVuSans-57"/>
      <use xlink:href="#DejaVuSans-45" x="98.876953"/>
      <use xlink:href="#DejaVuSans-42" x="162.060547"/>
      <use xlink:href="#DejaVuSans-53" x="228.914062"/>
      <use xlink:href="#DejaVuSans-54" x="292.390625"/>
      <use xlink:href="#DejaVuSans-45" x="353.474609"/>
      <use xlink:href="#DejaVuSans-52" x="416.658203"/>
     </g>
    </g>
    <g id="patch_94">
     <path d="M 753.25575 201.100562 
L 773.25575 201.100562 
L 773.25575 194.100562 
L 753.25575 194.100562 
z
" style="fill: #f7b6d2; stroke: #ffffff; stroke-width: 0.5; stroke-linejoin: miter"/>
    </g>
    <g id="text_26">
     <!-- CLINTON -->
     <g transform="translate(781.25575 201.100562) scale(0.1 -0.1)">
      <use xlink:href="#DejaVuSans-43"/>
      <use xlink:href="#DejaVuSans-4c" x="69.824219"/>
      <use xlink:href="#DejaVuSans-49" x="125.537109"/>
      <use xlink:href="#DejaVuSans-4e" x="155.029297"/>
      <use xlink:href="#DejaVuSans-54" x="229.833984"/>
      <use xlink:href="#DejaVuSans-4f" x="290.917969"/>
      <use xlink:href="#DejaVuSans-4e" x="369.628906"/>
     </g>
    </g>
    <g id="patch_95">
     <path d="M 753.25575 215.778687 
L 773.25575 215.778687 
L 773.25575 208.778687 
L 753.25575 208.778687 
z
" style="fill: #c7c7c7; stroke: #ffffff; stroke-width: 0.5; stroke-linejoin: miter"/>
    </g>
    <g id="text_27">
     <!-- OXFORD -->
     <g transform="translate(781.25575 215.778687) scale(0.1 -0.1)">
      <defs>
       <path id="DejaVuSans-58" d="M 403 4666 
L 1081 4666 
L 2241 2931 
L 3406 4666 
L 4084 4666 
L 2584 2425 
L 4184 0 
L 3506 0 
L 2194 1984 
L 872 0 
L 191 0 
L 1856 2491 
L 403 4666 
z
" transform="scale(0.015625)"/>
      </defs>
      <use xlink:href="#DejaVuSans-4f"/>
      <use xlink:href="#DejaVuSans-58" x="72.335938"/>
      <use xlink:href="#DejaVuSans-46" x="140.841797"/>
      <use xlink:href="#DejaVuSans-4f" x="198.361328"/>
      <use xlink:href="#DejaVuSans-52" x="277.072266"/>
      <use xlink:href="#DejaVuSans-44" x="346.554688"/>
     </g>
    </g>
    <g id="patch_96">
     <path d="M 753.25575 230.456812 
L 773.25575 230.456812 
L 773.25575 223.456812 
L 753.25575 223.456812 
z
" style="fill: #bcbd22; stroke: #ffffff; stroke-width: 0.5; stroke-linejoin: miter"/>
    </g>
    <g id="text_28">
     <!-- NORTHBRIDGE -->
     <g transform="translate(781.25575 230.456812) scale(0.1 -0.1)">
      <use xlink:href="#DejaVuSans-4e"/>
      <use xlink:href="#DejaVuSans-4f" x="74.804688"/>
      <use xlink:href="#DejaVuSans-52" x="153.515625"/>
      <use xlink:href="#DejaVuSans-54" x="215.748047"/>
      <use xlink:href="#DejaVuSans-48" x="276.832031"/>
      <use xlink:href="#DejaVuSans-42" x="352.027344"/>
      <use xlink:href="#DejaVuSans-52" x="420.630859"/>
      <use xlink:href="#DejaVuSans-49" x="490.113281"/>
      <use xlink:href="#DejaVuSans-44" x="519.605469"/>
      <use xlink:href="#DejaVuSans-47" x="596.607422"/>
      <use xlink:href="#DejaVuSans-45" x="674.097656"/>
     </g>
    </g>
    <g id="patch_97">
     <path d="M 753.25575 245.134937 
L 773.25575 245.134937 
L 773.25575 238.134937 
L 753.25575 238.134937 
z
" style="fill: #17becf; stroke: #ffffff; stroke-width: 0.5; stroke-linejoin: miter"/>
    </g>
    <g id="text_29">
     <!-- LEICESTER -->
     <g transform="translate(781.25575 245.134937) scale(0.1 -0.1)">
      <use xlink:href="#DejaVuSans-4c"/>
      <use xlink:href="#DejaVuSans-45" x="55.712891"/>
      <use xlink:href="#DejaVuSans-49" x="118.896484"/>
      <use xlink:href="#DejaVuSans-43" x="148.388672"/>
      <use xlink:href="#DejaVuSans-45" x="218.212891"/>
      <use xlink:href="#DejaVuSans-53" x="281.396484"/>
      <use xlink:href="#DejaVuSans-54" x="344.873047"/>
      <use xlink:href="#DejaVuSans-45" x="405.957031"/>
      <use xlink:href="#DejaVuSans-52" x="469.140625"/>
     </g>
    </g>
    <g id="patch_98">
     <path d="M 753.25575 259.813062 
L 773.25575 259.813062 
L 773.25575 252.813062 
L 753.25575 252.813062 
z
" style="fill: #9edae5; stroke: #ffffff; stroke-width: 0.5; stroke-linejoin: miter"/>
    </g>
    <g id="text_30">
     <!-- All Other Municipalities -->
     <g transform="translate(781.25575 259.813062) scale(0.1 -0.1)">
      <defs>
       <path id="DejaVuSans-68" d="M 3513 2113 
L 3513 0 
L 2938 0 
L 2938 2094 
Q 2938 2591 2744 2837 
Q 2550 3084 2163 3084 
Q 1697 3084 1428 2787 
Q 1159 2491 1159 1978 
L 1159 0 
L 581 0 
L 581 4863 
L 1159 4863 
L 1159 2956 
Q 1366 3272 1645 3428 
Q 1925 3584 2291 3584 
Q 2894 3584 3203 3211 
Q 3513 2838 3513 2113 
z
" transform="scale(0.015625)"/>
      </defs>
      <use xlink:href="#DejaVuSans-41"/>
      <use xlink:href="#DejaVuSans-6c" x="68.408203"/>
      <use xlink:href="#DejaVuSans-6c" x="96.191406"/>
      <use xlink:href="#DejaVuSans-20" x="123.974609"/>
      <use xlink:href="#DejaVuSans-4f" x="155.761719"/>
      <use xlink:href="#DejaVuSans-74" x="234.472656"/>
      <use xlink:href="#DejaVuSans-68" x="273.681641"/>
      <use xlink:href="#DejaVuSans-65" x="337.060547"/>
      <use xlink:href="#DejaVuSans-72" x="398.583984"/>
      <use xlink:href="#DejaVuSans-20" x="439.697266"/>
      <use xlink:href="#DejaVuSans-4d" x="471.484375"/>
      <use xlink:href="#DejaVuSans-75" x="557.763672"/>
      <use xlink:href="#DejaVuSans-6e" x="621.142578"/>
      <use xlink:href="#DejaVuSans-69" x="684.521484"/>
      <use xlink:href="#DejaVuSans-63" x="712.304688"/>
      <use xlink:href="#DejaVuSans-69" x="767.285156"/>
      <use xlink:href="#DejaVuSans-70" x="795.068359"/>
      <use xlink:href="#DejaVuSans-61" x="858.544922"/>
      <use xlink:href="#DejaVuSans-6c" x="919.824219"/>
      <use xlink:href="#DejaVuSans-69" x="947.607422"/>
      <use xlink:href="#DejaVuSans-74" x="975.390625"/>
      <use xlink:href="#DejaVuSans-69" x="1014.599609"/>
      <use xlink:href="#DejaVuSans-65" x="1042.382812"/>
      <use xlink:href="#DejaVuSans-73" x="1103.90625"/>
     </g>
    </g>
   </g>
  </g>
 </g>
 <defs>
  <clipPath id="p32e30b7c7c">
   <rect x="61.26375" y="52.399" width="669.6" height="388.08"/>
  </clipPath>
 </defs>
</svg>
